<mxfile host="65bd71144e" pages="2">
    <diagram name="New Entity Architecture" id="eIHBJfK-Ix2usfNjn9Gq">
        <mxGraphModel dx="1685" dy="1146" grid="1" gridSize="10" guides="1" tooltips="1" connect="1" arrows="1" fold="1" page="1" pageScale="1" pageWidth="850" pageHeight="1100" math="0" shadow="0">
            <root>
                <mxCell id="0"/>
                <mxCell id="1" parent="0"/>
                <mxCell id="0oVsuLsGvUDdPe-X074D-1" value="Theme" style="swimlane;fontStyle=0;childLayout=stackLayout;horizontal=1;startSize=30;horizontalStack=0;resizeParent=1;resizeParentMax=0;resizeLast=0;collapsible=1;marginBottom=0;whiteSpace=wrap;html=1;" parent="1" vertex="1">
                    <mxGeometry x="40" y="40" width="140" height="300" as="geometry"/>
                </mxCell>
                <mxCell id="0oVsuLsGvUDdPe-X074D-2" value="Id | Guid" style="text;strokeColor=none;fillColor=none;align=left;verticalAlign=middle;spacingLeft=4;spacingRight=4;overflow=hidden;points=[[0,0.5],[1,0.5]];portConstraint=eastwest;rotatable=0;whiteSpace=wrap;html=1;" parent="0oVsuLsGvUDdPe-X074D-1" vertex="1">
                    <mxGeometry y="30" width="140" height="30" as="geometry"/>
                </mxCell>
                <mxCell id="0oVsuLsGvUDdPe-X074D-3" value="LookupKey | string" style="text;strokeColor=none;fillColor=none;align=left;verticalAlign=middle;spacingLeft=4;spacingRight=4;overflow=hidden;points=[[0,0.5],[1,0.5]];portConstraint=eastwest;rotatable=0;whiteSpace=wrap;html=1;" parent="0oVsuLsGvUDdPe-X074D-1" vertex="1">
                    <mxGeometry y="60" width="140" height="30" as="geometry"/>
                </mxCell>
                <mxCell id="0oVsuLsGvUDdPe-X074D-4" value="Name | string" style="text;strokeColor=none;fillColor=none;align=left;verticalAlign=middle;spacingLeft=4;spacingRight=4;overflow=hidden;points=[[0,0.5],[1,0.5]];portConstraint=eastwest;rotatable=0;whiteSpace=wrap;html=1;" parent="0oVsuLsGvUDdPe-X074D-1" vertex="1">
                    <mxGeometry y="90" width="140" height="30" as="geometry"/>
                </mxCell>
                <mxCell id="0oVsuLsGvUDdPe-X074D-5" value="Description | string" style="text;strokeColor=none;fillColor=none;align=left;verticalAlign=middle;spacingLeft=4;spacingRight=4;overflow=hidden;points=[[0,0.5],[1,0.5]];portConstraint=eastwest;rotatable=0;whiteSpace=wrap;html=1;" parent="0oVsuLsGvUDdPe-X074D-1" vertex="1">
                    <mxGeometry y="120" width="140" height="30" as="geometry"/>
                </mxCell>
                <mxCell id="0oVsuLsGvUDdPe-X074D-6" value="CssClass | string" style="text;strokeColor=none;fillColor=none;align=left;verticalAlign=middle;spacingLeft=4;spacingRight=4;overflow=hidden;points=[[0,0.5],[1,0.5]];portConstraint=eastwest;rotatable=0;whiteSpace=wrap;html=1;" parent="0oVsuLsGvUDdPe-X074D-1" vertex="1">
                    <mxGeometry y="150" width="140" height="30" as="geometry"/>
                </mxCell>
                <mxCell id="0oVsuLsGvUDdPe-X074D-7" value="Author | string" style="text;strokeColor=none;fillColor=none;align=left;verticalAlign=middle;spacingLeft=4;spacingRight=4;overflow=hidden;points=[[0,0.5],[1,0.5]];portConstraint=eastwest;rotatable=0;whiteSpace=wrap;html=1;" parent="0oVsuLsGvUDdPe-X074D-1" vertex="1">
                    <mxGeometry y="180" width="140" height="30" as="geometry"/>
                </mxCell>
                <mxCell id="0oVsuLsGvUDdPe-X074D-8" value="CreateDate | string" style="text;strokeColor=none;fillColor=none;align=left;verticalAlign=middle;spacingLeft=4;spacingRight=4;overflow=hidden;points=[[0,0.5],[1,0.5]];portConstraint=eastwest;rotatable=0;whiteSpace=wrap;html=1;" parent="0oVsuLsGvUDdPe-X074D-1" vertex="1">
                    <mxGeometry y="210" width="140" height="30" as="geometry"/>
                </mxCell>
                <mxCell id="0oVsuLsGvUDdPe-X074D-9" value="Modifier | string" style="text;strokeColor=none;fillColor=none;align=left;verticalAlign=middle;spacingLeft=4;spacingRight=4;overflow=hidden;points=[[0,0.5],[1,0.5]];portConstraint=eastwest;rotatable=0;whiteSpace=wrap;html=1;" parent="0oVsuLsGvUDdPe-X074D-1" vertex="1">
                    <mxGeometry y="240" width="140" height="30" as="geometry"/>
                </mxCell>
                <mxCell id="0oVsuLsGvUDdPe-X074D-10" value="ModifiedDate | string" style="text;strokeColor=none;fillColor=none;align=left;verticalAlign=middle;spacingLeft=4;spacingRight=4;overflow=hidden;points=[[0,0.5],[1,0.5]];portConstraint=eastwest;rotatable=0;whiteSpace=wrap;html=1;" parent="0oVsuLsGvUDdPe-X074D-1" vertex="1">
                    <mxGeometry y="270" width="140" height="30" as="geometry"/>
                </mxCell>
                <mxCell id="0oVsuLsGvUDdPe-X074D-11" value="ThemeInternalVariable" style="swimlane;fontStyle=0;childLayout=stackLayout;horizontal=1;startSize=30;horizontalStack=0;resizeParent=1;resizeParentMax=0;resizeLast=0;collapsible=1;marginBottom=0;whiteSpace=wrap;html=1;" parent="1" vertex="1">
                    <mxGeometry x="40" y="360" width="200" height="270" as="geometry"/>
                </mxCell>
                <mxCell id="0oVsuLsGvUDdPe-X074D-12" value="Id | Guid" style="text;strokeColor=none;fillColor=none;align=left;verticalAlign=middle;spacingLeft=4;spacingRight=4;overflow=hidden;points=[[0,0.5],[1,0.5]];portConstraint=eastwest;rotatable=0;whiteSpace=wrap;html=1;" parent="0oVsuLsGvUDdPe-X074D-11" vertex="1">
                    <mxGeometry y="30" width="200" height="30" as="geometry"/>
                </mxCell>
                <mxCell id="0oVsuLsGvUDdPe-X074D-13" value="CssName | string" style="text;strokeColor=none;fillColor=none;align=left;verticalAlign=middle;spacingLeft=4;spacingRight=4;overflow=hidden;points=[[0,0.5],[1,0.5]];portConstraint=eastwest;rotatable=0;whiteSpace=wrap;html=1;" parent="0oVsuLsGvUDdPe-X074D-11" vertex="1">
                    <mxGeometry y="60" width="200" height="30" as="geometry"/>
                </mxCell>
                <mxCell id="0oVsuLsGvUDdPe-X074D-14" value="Name | string" style="text;strokeColor=none;fillColor=none;align=left;verticalAlign=middle;spacingLeft=4;spacingRight=4;overflow=hidden;points=[[0,0.5],[1,0.5]];portConstraint=eastwest;rotatable=0;whiteSpace=wrap;html=1;" parent="0oVsuLsGvUDdPe-X074D-11" vertex="1">
                    <mxGeometry y="90" width="200" height="30" as="geometry"/>
                </mxCell>
                <mxCell id="0oVsuLsGvUDdPe-X074D-15" value="Description | string" style="text;strokeColor=none;fillColor=none;align=left;verticalAlign=middle;spacingLeft=4;spacingRight=4;overflow=hidden;points=[[0,0.5],[1,0.5]];portConstraint=eastwest;rotatable=0;whiteSpace=wrap;html=1;" parent="0oVsuLsGvUDdPe-X074D-11" vertex="1">
                    <mxGeometry y="120" width="200" height="30" as="geometry"/>
                </mxCell>
                <mxCell id="0oVsuLsGvUDdPe-X074D-16" value="Author | string" style="text;strokeColor=none;fillColor=none;align=left;verticalAlign=middle;spacingLeft=4;spacingRight=4;overflow=hidden;points=[[0,0.5],[1,0.5]];portConstraint=eastwest;rotatable=0;whiteSpace=wrap;html=1;" parent="0oVsuLsGvUDdPe-X074D-11" vertex="1">
                    <mxGeometry y="150" width="200" height="30" as="geometry"/>
                </mxCell>
                <mxCell id="0oVsuLsGvUDdPe-X074D-17" value="CreateDate | string" style="text;strokeColor=none;fillColor=none;align=left;verticalAlign=middle;spacingLeft=4;spacingRight=4;overflow=hidden;points=[[0,0.5],[1,0.5]];portConstraint=eastwest;rotatable=0;whiteSpace=wrap;html=1;" parent="0oVsuLsGvUDdPe-X074D-11" vertex="1">
                    <mxGeometry y="180" width="200" height="30" as="geometry"/>
                </mxCell>
                <mxCell id="0oVsuLsGvUDdPe-X074D-18" value="Modifier | string" style="text;strokeColor=none;fillColor=none;align=left;verticalAlign=middle;spacingLeft=4;spacingRight=4;overflow=hidden;points=[[0,0.5],[1,0.5]];portConstraint=eastwest;rotatable=0;whiteSpace=wrap;html=1;" parent="0oVsuLsGvUDdPe-X074D-11" vertex="1">
                    <mxGeometry y="210" width="200" height="30" as="geometry"/>
                </mxCell>
                <mxCell id="0oVsuLsGvUDdPe-X074D-19" value="ModifiedDate | string" style="text;strokeColor=none;fillColor=none;align=left;verticalAlign=middle;spacingLeft=4;spacingRight=4;overflow=hidden;points=[[0,0.5],[1,0.5]];portConstraint=eastwest;rotatable=0;whiteSpace=wrap;html=1;" parent="0oVsuLsGvUDdPe-X074D-11" vertex="1">
                    <mxGeometry y="240" width="200" height="30" as="geometry"/>
                </mxCell>
                <mxCell id="0oVsuLsGvUDdPe-X074D-20" value="ThemeInternalVariableValue" style="swimlane;fontStyle=0;childLayout=stackLayout;horizontal=1;startSize=30;horizontalStack=0;resizeParent=1;resizeParentMax=0;resizeLast=0;collapsible=1;marginBottom=0;whiteSpace=wrap;html=1;" parent="1" vertex="1">
                    <mxGeometry x="650" y="360" width="200" height="270" as="geometry"/>
                </mxCell>
                <mxCell id="0oVsuLsGvUDdPe-X074D-22" value="ThemeId | Guid" style="text;strokeColor=none;fillColor=none;align=left;verticalAlign=middle;spacingLeft=4;spacingRight=4;overflow=hidden;points=[[0,0.5],[1,0.5]];portConstraint=eastwest;rotatable=0;whiteSpace=wrap;html=1;" parent="0oVsuLsGvUDdPe-X074D-20" vertex="1">
                    <mxGeometry y="30" width="200" height="30" as="geometry"/>
                </mxCell>
                <mxCell id="0oVsuLsGvUDdPe-X074D-23" value="ThemeInternalVariableId | Guid" style="text;strokeColor=none;fillColor=none;align=left;verticalAlign=middle;spacingLeft=4;spacingRight=4;overflow=hidden;points=[[0,0.5],[1,0.5]];portConstraint=eastwest;rotatable=0;whiteSpace=wrap;html=1;" parent="0oVsuLsGvUDdPe-X074D-20" vertex="1">
                    <mxGeometry y="60" width="200" height="30" as="geometry"/>
                </mxCell>
                <mxCell id="0oVsuLsGvUDdPe-X074D-24" value="Value | string" style="text;strokeColor=none;fillColor=none;align=left;verticalAlign=middle;spacingLeft=4;spacingRight=4;overflow=hidden;points=[[0,0.5],[1,0.5]];portConstraint=eastwest;rotatable=0;whiteSpace=wrap;html=1;" parent="0oVsuLsGvUDdPe-X074D-20" vertex="1">
                    <mxGeometry y="90" width="200" height="30" as="geometry"/>
                </mxCell>
                <mxCell id="msMqiFft1Zy_kTK0Fd0x-1" value="ValueLocked | bool" style="text;strokeColor=none;fillColor=none;align=left;verticalAlign=middle;spacingLeft=4;spacingRight=4;overflow=hidden;points=[[0,0.5],[1,0.5]];portConstraint=eastwest;rotatable=0;whiteSpace=wrap;html=1;" parent="0oVsuLsGvUDdPe-X074D-20" vertex="1">
                    <mxGeometry y="120" width="200" height="30" as="geometry"/>
                </mxCell>
                <mxCell id="0oVsuLsGvUDdPe-X074D-25" value="Author | string" style="text;strokeColor=none;fillColor=none;align=left;verticalAlign=middle;spacingLeft=4;spacingRight=4;overflow=hidden;points=[[0,0.5],[1,0.5]];portConstraint=eastwest;rotatable=0;whiteSpace=wrap;html=1;" parent="0oVsuLsGvUDdPe-X074D-20" vertex="1">
                    <mxGeometry y="150" width="200" height="30" as="geometry"/>
                </mxCell>
                <mxCell id="0oVsuLsGvUDdPe-X074D-26" value="CreateDate | string" style="text;strokeColor=none;fillColor=none;align=left;verticalAlign=middle;spacingLeft=4;spacingRight=4;overflow=hidden;points=[[0,0.5],[1,0.5]];portConstraint=eastwest;rotatable=0;whiteSpace=wrap;html=1;" parent="0oVsuLsGvUDdPe-X074D-20" vertex="1">
                    <mxGeometry y="180" width="200" height="30" as="geometry"/>
                </mxCell>
                <mxCell id="0oVsuLsGvUDdPe-X074D-27" value="Modifier | string" style="text;strokeColor=none;fillColor=none;align=left;verticalAlign=middle;spacingLeft=4;spacingRight=4;overflow=hidden;points=[[0,0.5],[1,0.5]];portConstraint=eastwest;rotatable=0;whiteSpace=wrap;html=1;" parent="0oVsuLsGvUDdPe-X074D-20" vertex="1">
                    <mxGeometry y="210" width="200" height="30" as="geometry"/>
                </mxCell>
                <mxCell id="0oVsuLsGvUDdPe-X074D-28" value="ModifiedDate | string" style="text;strokeColor=none;fillColor=none;align=left;verticalAlign=middle;spacingLeft=4;spacingRight=4;overflow=hidden;points=[[0,0.5],[1,0.5]];portConstraint=eastwest;rotatable=0;whiteSpace=wrap;html=1;" parent="0oVsuLsGvUDdPe-X074D-20" vertex="1">
                    <mxGeometry y="240" width="200" height="30" as="geometry"/>
                </mxCell>
                <mxCell id="0oVsuLsGvUDdPe-X074D-29" style="edgeStyle=none;html=1;exitX=0;exitY=0.5;exitDx=0;exitDy=0;entryX=1;entryY=0.5;entryDx=0;entryDy=0;jumpStyle=line;" parent="1" source="0oVsuLsGvUDdPe-X074D-22" target="0oVsuLsGvUDdPe-X074D-2" edge="1">
                    <mxGeometry relative="1" as="geometry">
                        <Array as="points">
                            <mxPoint x="440" y="405"/>
                            <mxPoint x="440" y="85"/>
                        </Array>
                    </mxGeometry>
                </mxCell>
                <mxCell id="0oVsuLsGvUDdPe-X074D-30" value="Theme =&amp;gt; ThemeInternalVariableValue&lt;br&gt;One to Many" style="edgeLabel;html=1;align=center;verticalAlign=middle;resizable=0;points=[];" parent="0oVsuLsGvUDdPe-X074D-29" connectable="0" vertex="1">
                    <mxGeometry x="-0.0737" y="-2" relative="1" as="geometry">
                        <mxPoint x="98" y="140" as="offset"/>
                    </mxGeometry>
                </mxCell>
                <mxCell id="0oVsuLsGvUDdPe-X074D-31" style="edgeStyle=none;jumpStyle=line;html=1;exitX=0;exitY=0.5;exitDx=0;exitDy=0;entryX=1;entryY=0.5;entryDx=0;entryDy=0;" parent="1" source="0oVsuLsGvUDdPe-X074D-23" target="0oVsuLsGvUDdPe-X074D-12" edge="1">
                    <mxGeometry relative="1" as="geometry">
                        <Array as="points">
                            <mxPoint x="320" y="435"/>
                            <mxPoint x="320" y="405"/>
                        </Array>
                    </mxGeometry>
                </mxCell>
                <mxCell id="0oVsuLsGvUDdPe-X074D-32" value="ThemeInternalVariable =&amp;gt; ThemeInternalVariableValue&lt;br&gt;One to Many" style="edgeLabel;html=1;align=center;verticalAlign=middle;resizable=0;points=[];" parent="0oVsuLsGvUDdPe-X074D-31" connectable="0" vertex="1">
                    <mxGeometry x="-0.7184" relative="1" as="geometry">
                        <mxPoint x="-75" y="-15" as="offset"/>
                    </mxGeometry>
                </mxCell>
                <mxCell id="0oVsuLsGvUDdPe-X074D-33" value="ThemeGroupVariable" style="swimlane;fontStyle=0;childLayout=stackLayout;horizontal=1;startSize=30;horizontalStack=0;resizeParent=1;resizeParentMax=0;resizeLast=0;collapsible=1;marginBottom=0;whiteSpace=wrap;html=1;" parent="1" vertex="1">
                    <mxGeometry x="40" y="960" width="200" height="240" as="geometry"/>
                </mxCell>
                <mxCell id="0oVsuLsGvUDdPe-X074D-34" value="Id | Guid" style="text;strokeColor=none;fillColor=none;align=left;verticalAlign=middle;spacingLeft=4;spacingRight=4;overflow=hidden;points=[[0,0.5],[1,0.5]];portConstraint=eastwest;rotatable=0;whiteSpace=wrap;html=1;" parent="0oVsuLsGvUDdPe-X074D-33" vertex="1">
                    <mxGeometry y="30" width="200" height="30" as="geometry"/>
                </mxCell>
                <mxCell id="0oVsuLsGvUDdPe-X074D-35" value="Name | string" style="text;strokeColor=none;fillColor=none;align=left;verticalAlign=middle;spacingLeft=4;spacingRight=4;overflow=hidden;points=[[0,0.5],[1,0.5]];portConstraint=eastwest;rotatable=0;whiteSpace=wrap;html=1;" parent="0oVsuLsGvUDdPe-X074D-33" vertex="1">
                    <mxGeometry y="60" width="200" height="30" as="geometry"/>
                </mxCell>
                <mxCell id="0oVsuLsGvUDdPe-X074D-36" value="Description | string" style="text;strokeColor=none;fillColor=none;align=left;verticalAlign=middle;spacingLeft=4;spacingRight=4;overflow=hidden;points=[[0,0.5],[1,0.5]];portConstraint=eastwest;rotatable=0;whiteSpace=wrap;html=1;" parent="0oVsuLsGvUDdPe-X074D-33" vertex="1">
                    <mxGeometry y="90" width="200" height="30" as="geometry"/>
                </mxCell>
                <mxCell id="0oVsuLsGvUDdPe-X074D-37" value="Author | string" style="text;strokeColor=none;fillColor=none;align=left;verticalAlign=middle;spacingLeft=4;spacingRight=4;overflow=hidden;points=[[0,0.5],[1,0.5]];portConstraint=eastwest;rotatable=0;whiteSpace=wrap;html=1;" parent="0oVsuLsGvUDdPe-X074D-33" vertex="1">
                    <mxGeometry y="120" width="200" height="30" as="geometry"/>
                </mxCell>
                <mxCell id="0oVsuLsGvUDdPe-X074D-38" value="CreateDate | string" style="text;strokeColor=none;fillColor=none;align=left;verticalAlign=middle;spacingLeft=4;spacingRight=4;overflow=hidden;points=[[0,0.5],[1,0.5]];portConstraint=eastwest;rotatable=0;whiteSpace=wrap;html=1;" parent="0oVsuLsGvUDdPe-X074D-33" vertex="1">
                    <mxGeometry y="150" width="200" height="30" as="geometry"/>
                </mxCell>
                <mxCell id="0oVsuLsGvUDdPe-X074D-39" value="Modifier | string" style="text;strokeColor=none;fillColor=none;align=left;verticalAlign=middle;spacingLeft=4;spacingRight=4;overflow=hidden;points=[[0,0.5],[1,0.5]];portConstraint=eastwest;rotatable=0;whiteSpace=wrap;html=1;" parent="0oVsuLsGvUDdPe-X074D-33" vertex="1">
                    <mxGeometry y="180" width="200" height="30" as="geometry"/>
                </mxCell>
                <mxCell id="0oVsuLsGvUDdPe-X074D-40" value="ModifiedDate | string" style="text;strokeColor=none;fillColor=none;align=left;verticalAlign=middle;spacingLeft=4;spacingRight=4;overflow=hidden;points=[[0,0.5],[1,0.5]];portConstraint=eastwest;rotatable=0;whiteSpace=wrap;html=1;" parent="0oVsuLsGvUDdPe-X074D-33" vertex="1">
                    <mxGeometry y="210" width="200" height="30" as="geometry"/>
                </mxCell>
                <mxCell id="0oVsuLsGvUDdPe-X074D-41" value="ThemeGroupVariableValue" style="swimlane;fontStyle=0;childLayout=stackLayout;horizontal=1;startSize=30;horizontalStack=0;resizeParent=1;resizeParentMax=0;resizeLast=0;collapsible=1;marginBottom=0;whiteSpace=wrap;html=1;" parent="1" vertex="1">
                    <mxGeometry x="940" y="970" width="200" height="270" as="geometry"/>
                </mxCell>
                <mxCell id="0oVsuLsGvUDdPe-X074D-42" value="Id | Guid" style="text;strokeColor=none;fillColor=none;align=left;verticalAlign=middle;spacingLeft=4;spacingRight=4;overflow=hidden;points=[[0,0.5],[1,0.5]];portConstraint=eastwest;rotatable=0;whiteSpace=wrap;html=1;" parent="0oVsuLsGvUDdPe-X074D-41" vertex="1">
                    <mxGeometry y="30" width="200" height="30" as="geometry"/>
                </mxCell>
                <mxCell id="0oVsuLsGvUDdPe-X074D-43" value="ThemeId | Guid" style="text;strokeColor=none;fillColor=none;align=left;verticalAlign=middle;spacingLeft=4;spacingRight=4;overflow=hidden;points=[[0,0.5],[1,0.5]];portConstraint=eastwest;rotatable=0;whiteSpace=wrap;html=1;" parent="0oVsuLsGvUDdPe-X074D-41" vertex="1">
                    <mxGeometry y="60" width="200" height="30" as="geometry"/>
                </mxCell>
                <mxCell id="0oVsuLsGvUDdPe-X074D-44" value="ThemeGroupVariableId | Guid" style="text;strokeColor=none;fillColor=none;align=left;verticalAlign=middle;spacingLeft=4;spacingRight=4;overflow=hidden;points=[[0,0.5],[1,0.5]];portConstraint=eastwest;rotatable=0;whiteSpace=wrap;html=1;" parent="0oVsuLsGvUDdPe-X074D-41" vertex="1">
                    <mxGeometry y="90" width="200" height="30" as="geometry"/>
                </mxCell>
                <mxCell id="0oVsuLsGvUDdPe-X074D-45" value="Value | string" style="text;strokeColor=none;fillColor=none;align=left;verticalAlign=middle;spacingLeft=4;spacingRight=4;overflow=hidden;points=[[0,0.5],[1,0.5]];portConstraint=eastwest;rotatable=0;whiteSpace=wrap;html=1;" parent="0oVsuLsGvUDdPe-X074D-41" vertex="1">
                    <mxGeometry y="120" width="200" height="30" as="geometry"/>
                </mxCell>
                <mxCell id="0oVsuLsGvUDdPe-X074D-46" value="Author | string" style="text;strokeColor=none;fillColor=none;align=left;verticalAlign=middle;spacingLeft=4;spacingRight=4;overflow=hidden;points=[[0,0.5],[1,0.5]];portConstraint=eastwest;rotatable=0;whiteSpace=wrap;html=1;" parent="0oVsuLsGvUDdPe-X074D-41" vertex="1">
                    <mxGeometry y="150" width="200" height="30" as="geometry"/>
                </mxCell>
                <mxCell id="0oVsuLsGvUDdPe-X074D-47" value="CreateDate | string" style="text;strokeColor=none;fillColor=none;align=left;verticalAlign=middle;spacingLeft=4;spacingRight=4;overflow=hidden;points=[[0,0.5],[1,0.5]];portConstraint=eastwest;rotatable=0;whiteSpace=wrap;html=1;" parent="0oVsuLsGvUDdPe-X074D-41" vertex="1">
                    <mxGeometry y="180" width="200" height="30" as="geometry"/>
                </mxCell>
                <mxCell id="0oVsuLsGvUDdPe-X074D-48" value="Modifier | string" style="text;strokeColor=none;fillColor=none;align=left;verticalAlign=middle;spacingLeft=4;spacingRight=4;overflow=hidden;points=[[0,0.5],[1,0.5]];portConstraint=eastwest;rotatable=0;whiteSpace=wrap;html=1;" parent="0oVsuLsGvUDdPe-X074D-41" vertex="1">
                    <mxGeometry y="210" width="200" height="30" as="geometry"/>
                </mxCell>
                <mxCell id="0oVsuLsGvUDdPe-X074D-49" value="ModifiedDate | string" style="text;strokeColor=none;fillColor=none;align=left;verticalAlign=middle;spacingLeft=4;spacingRight=4;overflow=hidden;points=[[0,0.5],[1,0.5]];portConstraint=eastwest;rotatable=0;whiteSpace=wrap;html=1;" parent="0oVsuLsGvUDdPe-X074D-41" vertex="1">
                    <mxGeometry y="240" width="200" height="30" as="geometry"/>
                </mxCell>
                <mxCell id="0oVsuLsGvUDdPe-X074D-50" style="edgeStyle=none;jumpStyle=line;html=1;exitX=0;exitY=0.5;exitDx=0;exitDy=0;entryX=1;entryY=0.5;entryDx=0;entryDy=0;" parent="1" source="0oVsuLsGvUDdPe-X074D-44" target="0oVsuLsGvUDdPe-X074D-34" edge="1">
                    <mxGeometry relative="1" as="geometry">
                        <Array as="points">
                            <mxPoint x="320" y="1065"/>
                            <mxPoint x="320" y="1005"/>
                        </Array>
                    </mxGeometry>
                </mxCell>
                <mxCell id="0oVsuLsGvUDdPe-X074D-51" value="ThemeMasterVariable =&amp;gt; ThemeMasterVariableValue&lt;br&gt;One to Many" style="edgeLabel;html=1;align=center;verticalAlign=middle;resizable=0;points=[];" parent="0oVsuLsGvUDdPe-X074D-50" connectable="0" vertex="1">
                    <mxGeometry x="-0.7184" relative="1" as="geometry">
                        <mxPoint x="-75" y="-15" as="offset"/>
                    </mxGeometry>
                </mxCell>
                <mxCell id="0oVsuLsGvUDdPe-X074D-52" style="edgeStyle=none;jumpStyle=line;html=1;exitX=0;exitY=0.5;exitDx=0;exitDy=0;entryX=1;entryY=0.5;entryDx=0;entryDy=0;" parent="1" source="0oVsuLsGvUDdPe-X074D-43" target="0oVsuLsGvUDdPe-X074D-2" edge="1">
                    <mxGeometry relative="1" as="geometry">
                        <Array as="points">
                            <mxPoint x="440" y="1035"/>
                            <mxPoint x="440" y="85"/>
                        </Array>
                    </mxGeometry>
                </mxCell>
                <mxCell id="0oVsuLsGvUDdPe-X074D-53" value="Theme =&amp;gt; ThemeMasterVariableValue&lt;br&gt;One to many" style="edgeLabel;html=1;align=center;verticalAlign=middle;resizable=0;points=[];" parent="0oVsuLsGvUDdPe-X074D-52" connectable="0" vertex="1">
                    <mxGeometry x="-0.8418" relative="1" as="geometry">
                        <mxPoint x="9" y="-15" as="offset"/>
                    </mxGeometry>
                </mxCell>
                <mxCell id="0oVsuLsGvUDdPe-X074D-54" value="ThemeGroupInternalVariableLinkage" style="swimlane;fontStyle=0;childLayout=stackLayout;horizontal=1;startSize=30;horizontalStack=0;resizeParent=1;resizeParentMax=0;resizeLast=0;collapsible=1;marginBottom=0;whiteSpace=wrap;html=1;" parent="1" vertex="1">
                    <mxGeometry x="640" y="680" width="220" height="210" as="geometry"/>
                </mxCell>
                <mxCell id="0oVsuLsGvUDdPe-X074D-56" value="ThemeGroupVariableId | Guid" style="text;strokeColor=none;fillColor=none;align=left;verticalAlign=middle;spacingLeft=4;spacingRight=4;overflow=hidden;points=[[0,0.5],[1,0.5]];portConstraint=eastwest;rotatable=0;whiteSpace=wrap;html=1;" parent="0oVsuLsGvUDdPe-X074D-54" vertex="1">
                    <mxGeometry y="30" width="220" height="30" as="geometry"/>
                </mxCell>
                <mxCell id="0oVsuLsGvUDdPe-X074D-57" value="ThemeInternalVariableId | Guid" style="text;strokeColor=none;fillColor=none;align=left;verticalAlign=middle;spacingLeft=4;spacingRight=4;overflow=hidden;points=[[0,0.5],[1,0.5]];portConstraint=eastwest;rotatable=0;whiteSpace=wrap;html=1;" parent="0oVsuLsGvUDdPe-X074D-54" vertex="1">
                    <mxGeometry y="60" width="220" height="30" as="geometry"/>
                </mxCell>
                <mxCell id="0oVsuLsGvUDdPe-X074D-58" value="Author | string" style="text;strokeColor=none;fillColor=none;align=left;verticalAlign=middle;spacingLeft=4;spacingRight=4;overflow=hidden;points=[[0,0.5],[1,0.5]];portConstraint=eastwest;rotatable=0;whiteSpace=wrap;html=1;" parent="0oVsuLsGvUDdPe-X074D-54" vertex="1">
                    <mxGeometry y="90" width="220" height="30" as="geometry"/>
                </mxCell>
                <mxCell id="0oVsuLsGvUDdPe-X074D-59" value="CreateDate | string" style="text;strokeColor=none;fillColor=none;align=left;verticalAlign=middle;spacingLeft=4;spacingRight=4;overflow=hidden;points=[[0,0.5],[1,0.5]];portConstraint=eastwest;rotatable=0;whiteSpace=wrap;html=1;" parent="0oVsuLsGvUDdPe-X074D-54" vertex="1">
                    <mxGeometry y="120" width="220" height="30" as="geometry"/>
                </mxCell>
                <mxCell id="0oVsuLsGvUDdPe-X074D-60" value="Modifier | string" style="text;strokeColor=none;fillColor=none;align=left;verticalAlign=middle;spacingLeft=4;spacingRight=4;overflow=hidden;points=[[0,0.5],[1,0.5]];portConstraint=eastwest;rotatable=0;whiteSpace=wrap;html=1;" parent="0oVsuLsGvUDdPe-X074D-54" vertex="1">
                    <mxGeometry y="150" width="220" height="30" as="geometry"/>
                </mxCell>
                <mxCell id="0oVsuLsGvUDdPe-X074D-61" value="ModifiedDate | string" style="text;strokeColor=none;fillColor=none;align=left;verticalAlign=middle;spacingLeft=4;spacingRight=4;overflow=hidden;points=[[0,0.5],[1,0.5]];portConstraint=eastwest;rotatable=0;whiteSpace=wrap;html=1;" parent="0oVsuLsGvUDdPe-X074D-54" vertex="1">
                    <mxGeometry y="180" width="220" height="30" as="geometry"/>
                </mxCell>
                <mxCell id="0oVsuLsGvUDdPe-X074D-62" style="edgeStyle=none;jumpStyle=line;html=1;exitX=0;exitY=0.5;exitDx=0;exitDy=0;entryX=1;entryY=0.5;entryDx=0;entryDy=0;" parent="1" source="0oVsuLsGvUDdPe-X074D-56" target="0oVsuLsGvUDdPe-X074D-34" edge="1">
                    <mxGeometry relative="1" as="geometry">
                        <Array as="points">
                            <mxPoint x="320" y="725"/>
                            <mxPoint x="320" y="1005"/>
                        </Array>
                    </mxGeometry>
                </mxCell>
                <mxCell id="0oVsuLsGvUDdPe-X074D-63" value="ThemeMasterVariable =&amp;gt; ThemeMasterInternalLinkage&lt;br&gt;One to One" style="edgeLabel;html=1;align=center;verticalAlign=middle;resizable=0;points=[];" parent="0oVsuLsGvUDdPe-X074D-62" connectable="0" vertex="1">
                    <mxGeometry x="-0.4593" y="-2" relative="1" as="geometry">
                        <mxPoint x="36" y="-13" as="offset"/>
                    </mxGeometry>
                </mxCell>
                <mxCell id="0oVsuLsGvUDdPe-X074D-64" style="edgeStyle=none;jumpStyle=line;html=1;exitX=0;exitY=0.5;exitDx=0;exitDy=0;entryX=1;entryY=0.5;entryDx=0;entryDy=0;" parent="1" source="0oVsuLsGvUDdPe-X074D-57" target="0oVsuLsGvUDdPe-X074D-12" edge="1">
                    <mxGeometry relative="1" as="geometry">
                        <Array as="points">
                            <mxPoint x="330" y="755"/>
                            <mxPoint x="330" y="405"/>
                        </Array>
                    </mxGeometry>
                </mxCell>
                <mxCell id="0oVsuLsGvUDdPe-X074D-65" value="ThemeInternalVariable =&amp;gt; ThemeMasterInternalLinkage&lt;br&gt;One to One" style="edgeLabel;html=1;align=center;verticalAlign=middle;resizable=0;points=[];" parent="0oVsuLsGvUDdPe-X074D-64" connectable="0" vertex="1">
                    <mxGeometry x="-0.6927" y="3" relative="1" as="geometry">
                        <mxPoint x="-20" y="12" as="offset"/>
                    </mxGeometry>
                </mxCell>
            </root>
        </mxGraphModel>
    </diagram>
    <diagram id="WM854gRHdmt9JcdZET7r" name="If moving towards explicit definitions">
        <mxGraphModel dx="1685" dy="2246" grid="1" gridSize="10" guides="1" tooltips="1" connect="1" arrows="1" fold="1" page="1" pageScale="1" pageWidth="850" pageHeight="1100" math="0" shadow="0">
            <root>
                <mxCell id="0"/>
                <mxCell id="1" parent="0"/>
                <mxCell id="IxbjazwBfsysKAVZ26WX-1" value="" style="group" parent="1" connectable="0" vertex="1">
                    <mxGeometry x="50" y="-10" width="630" height="250" as="geometry"/>
                </mxCell>
                <mxCell id="IxbjazwBfsysKAVZ26WX-2" value="" style="rounded=0;whiteSpace=wrap;html=1;dashed=1;html=1;dashPattern=1 3;align=left;" parent="IxbjazwBfsysKAVZ26WX-1" vertex="1">
                    <mxGeometry width="630" height="250" as="geometry"/>
                </mxCell>
                <mxCell id="IxbjazwBfsysKAVZ26WX-3" value="Default" style="swimlane;fontStyle=0;childLayout=stackLayout;horizontal=1;startSize=30;horizontalStack=0;resizeParent=1;resizeParentMax=0;resizeLast=0;collapsible=1;marginBottom=0;whiteSpace=wrap;html=1;" parent="IxbjazwBfsysKAVZ26WX-1" vertex="1">
                    <mxGeometry x="20" y="50" width="140" height="180" as="geometry"/>
                </mxCell>
                <mxCell id="IxbjazwBfsysKAVZ26WX-4" value="TopVar1" style="text;strokeColor=none;fillColor=none;align=left;verticalAlign=middle;spacingLeft=4;spacingRight=4;overflow=hidden;points=[[0,0.5],[1,0.5]];portConstraint=eastwest;rotatable=0;whiteSpace=wrap;html=1;" parent="IxbjazwBfsysKAVZ26WX-3" vertex="1">
                    <mxGeometry y="30" width="140" height="30" as="geometry"/>
                </mxCell>
                <mxCell id="IxbjazwBfsysKAVZ26WX-5" value="&lt;blockquote style=&quot;margin: 0 0 0 40px; border: none; padding: 0px;&quot;&gt;&lt;span style=&quot;background-color: rgb(255, 255, 255);&quot;&gt;var1&lt;/span&gt;&lt;/blockquote&gt;" style="text;strokeColor=none;fillColor=none;align=left;verticalAlign=middle;spacingLeft=4;spacingRight=4;overflow=hidden;points=[[0,0.5],[1,0.5]];portConstraint=eastwest;rotatable=0;whiteSpace=wrap;html=1;" parent="IxbjazwBfsysKAVZ26WX-3" vertex="1">
                    <mxGeometry y="60" width="140" height="30" as="geometry"/>
                </mxCell>
                <mxCell id="IxbjazwBfsysKAVZ26WX-6" value="&lt;blockquote style=&quot;margin: 0 0 0 40px; border: none; padding: 0px;&quot;&gt;&lt;span style=&quot;background-color: rgb(255, 255, 255);&quot;&gt;var2&lt;/span&gt;&lt;/blockquote&gt;" style="text;strokeColor=none;fillColor=none;align=left;verticalAlign=middle;spacingLeft=4;spacingRight=4;overflow=hidden;points=[[0,0.5],[1,0.5]];portConstraint=eastwest;rotatable=0;whiteSpace=wrap;html=1;" parent="IxbjazwBfsysKAVZ26WX-3" vertex="1">
                    <mxGeometry y="90" width="140" height="30" as="geometry"/>
                </mxCell>
                <mxCell id="IxbjazwBfsysKAVZ26WX-7" value="TopVar2" style="text;strokeColor=none;fillColor=none;align=left;verticalAlign=middle;spacingLeft=4;spacingRight=4;overflow=hidden;points=[[0,0.5],[1,0.5]];portConstraint=eastwest;rotatable=0;whiteSpace=wrap;html=1;" parent="IxbjazwBfsysKAVZ26WX-3" vertex="1">
                    <mxGeometry y="120" width="140" height="30" as="geometry"/>
                </mxCell>
                <mxCell id="IxbjazwBfsysKAVZ26WX-8" value="&lt;blockquote style=&quot;margin: 0 0 0 40px; border: none; padding: 0px;&quot;&gt;&lt;span style=&quot;background-color: rgb(255, 255, 255);&quot;&gt;var3&lt;/span&gt;&lt;/blockquote&gt;" style="text;strokeColor=none;fillColor=none;align=left;verticalAlign=middle;spacingLeft=4;spacingRight=4;overflow=hidden;points=[[0,0.5],[1,0.5]];portConstraint=eastwest;rotatable=0;whiteSpace=wrap;html=1;" parent="IxbjazwBfsysKAVZ26WX-3" vertex="1">
                    <mxGeometry y="150" width="140" height="30" as="geometry"/>
                </mxCell>
                <mxCell id="IxbjazwBfsysKAVZ26WX-9" value="Taylor Morrison" style="swimlane;fontStyle=0;childLayout=stackLayout;horizontal=1;startSize=30;horizontalStack=0;resizeParent=1;resizeParentMax=0;resizeLast=0;collapsible=1;marginBottom=0;whiteSpace=wrap;html=1;" parent="IxbjazwBfsysKAVZ26WX-1" vertex="1">
                    <mxGeometry x="235" y="50" width="140" height="180" as="geometry"/>
                </mxCell>
                <mxCell id="IxbjazwBfsysKAVZ26WX-10" value="TopVar1" style="text;strokeColor=none;fillColor=none;align=left;verticalAlign=middle;spacingLeft=4;spacingRight=4;overflow=hidden;points=[[0,0.5],[1,0.5]];portConstraint=eastwest;rotatable=0;whiteSpace=wrap;html=1;" parent="IxbjazwBfsysKAVZ26WX-9" vertex="1">
                    <mxGeometry y="30" width="140" height="30" as="geometry"/>
                </mxCell>
                <mxCell id="IxbjazwBfsysKAVZ26WX-11" value="&lt;blockquote style=&quot;margin: 0 0 0 40px; border: none; padding: 0px;&quot;&gt;&lt;span style=&quot;background-color: rgb(255, 255, 255);&quot;&gt;var1&lt;/span&gt;&lt;/blockquote&gt;" style="text;strokeColor=none;fillColor=none;align=left;verticalAlign=middle;spacingLeft=4;spacingRight=4;overflow=hidden;points=[[0,0.5],[1,0.5]];portConstraint=eastwest;rotatable=0;whiteSpace=wrap;html=1;" parent="IxbjazwBfsysKAVZ26WX-9" vertex="1">
                    <mxGeometry y="60" width="140" height="30" as="geometry"/>
                </mxCell>
                <mxCell id="IxbjazwBfsysKAVZ26WX-12" value="&lt;blockquote style=&quot;margin: 0 0 0 40px; border: none; padding: 0px;&quot;&gt;&lt;span style=&quot;background-color: rgb(255, 255, 255);&quot;&gt;var2&lt;/span&gt;&lt;/blockquote&gt;" style="text;strokeColor=none;fillColor=none;align=left;verticalAlign=middle;spacingLeft=4;spacingRight=4;overflow=hidden;points=[[0,0.5],[1,0.5]];portConstraint=eastwest;rotatable=0;whiteSpace=wrap;html=1;" parent="IxbjazwBfsysKAVZ26WX-9" vertex="1">
                    <mxGeometry y="90" width="140" height="30" as="geometry"/>
                </mxCell>
                <mxCell id="IxbjazwBfsysKAVZ26WX-13" value="TopVar2" style="text;strokeColor=none;fillColor=none;align=left;verticalAlign=middle;spacingLeft=4;spacingRight=4;overflow=hidden;points=[[0,0.5],[1,0.5]];portConstraint=eastwest;rotatable=0;whiteSpace=wrap;html=1;" parent="IxbjazwBfsysKAVZ26WX-9" vertex="1">
                    <mxGeometry y="120" width="140" height="30" as="geometry"/>
                </mxCell>
                <mxCell id="IxbjazwBfsysKAVZ26WX-14" value="&lt;blockquote style=&quot;margin: 0 0 0 40px; border: none; padding: 0px;&quot;&gt;&lt;span style=&quot;background-color: rgb(255, 255, 255);&quot;&gt;var3&lt;/span&gt;&lt;/blockquote&gt;" style="text;strokeColor=none;fillColor=none;align=left;verticalAlign=middle;spacingLeft=4;spacingRight=4;overflow=hidden;points=[[0,0.5],[1,0.5]];portConstraint=eastwest;rotatable=0;whiteSpace=wrap;html=1;" parent="IxbjazwBfsysKAVZ26WX-9" vertex="1">
                    <mxGeometry y="150" width="140" height="30" as="geometry"/>
                </mxCell>
                <mxCell id="IxbjazwBfsysKAVZ26WX-15" value="Perry" style="swimlane;fontStyle=0;childLayout=stackLayout;horizontal=1;startSize=30;horizontalStack=0;resizeParent=1;resizeParentMax=0;resizeLast=0;collapsible=1;marginBottom=0;whiteSpace=wrap;html=1;" parent="IxbjazwBfsysKAVZ26WX-1" vertex="1">
                    <mxGeometry x="450" y="50" width="140" height="180" as="geometry"/>
                </mxCell>
                <mxCell id="IxbjazwBfsysKAVZ26WX-16" value="TopVar1" style="text;strokeColor=none;fillColor=none;align=left;verticalAlign=middle;spacingLeft=4;spacingRight=4;overflow=hidden;points=[[0,0.5],[1,0.5]];portConstraint=eastwest;rotatable=0;whiteSpace=wrap;html=1;" parent="IxbjazwBfsysKAVZ26WX-15" vertex="1">
                    <mxGeometry y="30" width="140" height="30" as="geometry"/>
                </mxCell>
                <mxCell id="IxbjazwBfsysKAVZ26WX-17" value="&lt;blockquote style=&quot;margin: 0 0 0 40px; border: none; padding: 0px;&quot;&gt;&lt;span style=&quot;background-color: rgb(255, 255, 255);&quot;&gt;var1&lt;/span&gt;&lt;/blockquote&gt;" style="text;strokeColor=none;fillColor=none;align=left;verticalAlign=middle;spacingLeft=4;spacingRight=4;overflow=hidden;points=[[0,0.5],[1,0.5]];portConstraint=eastwest;rotatable=0;whiteSpace=wrap;html=1;" parent="IxbjazwBfsysKAVZ26WX-15" vertex="1">
                    <mxGeometry y="60" width="140" height="30" as="geometry"/>
                </mxCell>
                <mxCell id="IxbjazwBfsysKAVZ26WX-18" value="&lt;blockquote style=&quot;margin: 0 0 0 40px; border: none; padding: 0px;&quot;&gt;&lt;span style=&quot;background-color: rgb(255, 255, 255);&quot;&gt;var2&lt;/span&gt;&lt;/blockquote&gt;" style="text;strokeColor=none;fillColor=none;align=left;verticalAlign=middle;spacingLeft=4;spacingRight=4;overflow=hidden;points=[[0,0.5],[1,0.5]];portConstraint=eastwest;rotatable=0;whiteSpace=wrap;html=1;" parent="IxbjazwBfsysKAVZ26WX-15" vertex="1">
                    <mxGeometry y="90" width="140" height="30" as="geometry"/>
                </mxCell>
                <mxCell id="IxbjazwBfsysKAVZ26WX-19" value="TopVar2" style="text;strokeColor=none;fillColor=none;align=left;verticalAlign=middle;spacingLeft=4;spacingRight=4;overflow=hidden;points=[[0,0.5],[1,0.5]];portConstraint=eastwest;rotatable=0;whiteSpace=wrap;html=1;" parent="IxbjazwBfsysKAVZ26WX-15" vertex="1">
                    <mxGeometry y="120" width="140" height="30" as="geometry"/>
                </mxCell>
                <mxCell id="IxbjazwBfsysKAVZ26WX-20" value="&lt;blockquote style=&quot;margin: 0 0 0 40px; border: none; padding: 0px;&quot;&gt;&lt;span style=&quot;background-color: rgb(255, 255, 255);&quot;&gt;var3&lt;/span&gt;&lt;/blockquote&gt;" style="text;strokeColor=none;fillColor=none;align=left;verticalAlign=middle;spacingLeft=4;spacingRight=4;overflow=hidden;points=[[0,0.5],[1,0.5]];portConstraint=eastwest;rotatable=0;whiteSpace=wrap;html=1;" parent="IxbjazwBfsysKAVZ26WX-15" vertex="1">
                    <mxGeometry y="150" width="140" height="30" as="geometry"/>
                </mxCell>
                <mxCell id="IxbjazwBfsysKAVZ26WX-21" value="&lt;b&gt;Explicit&lt;/b&gt;" style="text;html=1;align=center;verticalAlign=middle;whiteSpace=wrap;rounded=0;" parent="IxbjazwBfsysKAVZ26WX-1" vertex="1">
                    <mxGeometry x="20" y="9" width="180" height="30" as="geometry"/>
                </mxCell>
                <mxCell id="IxbjazwBfsysKAVZ26WX-22" value="" style="rounded=0;whiteSpace=wrap;html=1;dashed=1;html=1;dashPattern=1 3;align=left;container=0;" parent="1" vertex="1">
                    <mxGeometry x="50" y="300" width="630" height="290" as="geometry"/>
                </mxCell>
                <mxCell id="IxbjazwBfsysKAVZ26WX-23" value="Default" style="swimlane;fontStyle=0;childLayout=stackLayout;horizontal=1;startSize=30;horizontalStack=0;resizeParent=1;resizeParentMax=0;resizeLast=0;collapsible=1;marginBottom=0;whiteSpace=wrap;html=1;container=0;" parent="1" vertex="1">
                    <mxGeometry x="70" y="391" width="140" height="180" as="geometry"/>
                </mxCell>
                <mxCell id="IxbjazwBfsysKAVZ26WX-24" value="Taylor Morrison" style="swimlane;fontStyle=0;childLayout=stackLayout;horizontal=1;startSize=30;horizontalStack=0;resizeParent=1;resizeParentMax=0;resizeLast=0;collapsible=1;marginBottom=0;whiteSpace=wrap;html=1;container=0;" parent="1" vertex="1">
                    <mxGeometry x="285" y="391" width="140" height="180" as="geometry"/>
                </mxCell>
                <mxCell id="IxbjazwBfsysKAVZ26WX-25" value="&lt;b&gt;Currently we have....&lt;/b&gt;" style="text;html=1;align=center;verticalAlign=middle;whiteSpace=wrap;rounded=0;container=0;" parent="1" vertex="1">
                    <mxGeometry x="70" y="309" width="120" height="30" as="geometry"/>
                </mxCell>
                <mxCell id="IxbjazwBfsysKAVZ26WX-26" value="Taylor Morrison" style="swimlane;fontStyle=0;childLayout=stackLayout;horizontal=1;startSize=30;horizontalStack=0;resizeParent=1;resizeParentMax=0;resizeLast=0;collapsible=1;marginBottom=0;whiteSpace=wrap;html=1;container=0;" parent="1" vertex="1">
                    <mxGeometry x="500" y="391" width="140" height="180" as="geometry"/>
                </mxCell>
                <mxCell id="IxbjazwBfsysKAVZ26WX-27" value="&lt;font style=&quot;font-size: 36px;&quot;&gt;+&lt;/font&gt;" style="text;html=1;align=center;verticalAlign=middle;whiteSpace=wrap;rounded=0;container=0;" parent="1" vertex="1">
                    <mxGeometry x="220" y="466" width="60" height="30" as="geometry"/>
                </mxCell>
                <mxCell id="IxbjazwBfsysKAVZ26WX-28" value="&lt;font style=&quot;font-size: 36px;&quot;&gt;=&lt;/font&gt;" style="text;html=1;align=center;verticalAlign=middle;whiteSpace=wrap;rounded=0;container=0;" parent="1" vertex="1">
                    <mxGeometry x="432" y="467" width="60" height="30" as="geometry"/>
                </mxCell>
                <mxCell id="IxbjazwBfsysKAVZ26WX-29" value="Frontend" style="text;html=1;align=center;verticalAlign=middle;whiteSpace=wrap;rounded=0;container=0;" parent="1" vertex="1">
                    <mxGeometry x="540" y="368" width="60" height="30" as="geometry"/>
                </mxCell>
                <mxCell id="IxbjazwBfsysKAVZ26WX-30" value="TopVar1" style="text;strokeColor=none;fillColor=none;align=left;verticalAlign=middle;spacingLeft=4;spacingRight=4;overflow=hidden;points=[[0,0.5],[1,0.5]];portConstraint=eastwest;rotatable=0;whiteSpace=wrap;html=1;container=0;" parent="1" vertex="1">
                    <mxGeometry x="70" y="421" width="140" height="30" as="geometry"/>
                </mxCell>
                <mxCell id="IxbjazwBfsysKAVZ26WX-31" value="&lt;blockquote style=&quot;margin: 0 0 0 40px; border: none; padding: 0px;&quot;&gt;&lt;span style=&quot;background-color: rgb(255, 255, 255);&quot;&gt;var1&lt;/span&gt;&lt;/blockquote&gt;" style="text;strokeColor=none;fillColor=none;align=left;verticalAlign=middle;spacingLeft=4;spacingRight=4;overflow=hidden;points=[[0,0.5],[1,0.5]];portConstraint=eastwest;rotatable=0;whiteSpace=wrap;html=1;container=0;" parent="1" vertex="1">
                    <mxGeometry x="70" y="451" width="140" height="30" as="geometry"/>
                </mxCell>
                <mxCell id="IxbjazwBfsysKAVZ26WX-32" value="&lt;blockquote style=&quot;margin: 0 0 0 40px; border: none; padding: 0px;&quot;&gt;&lt;span style=&quot;background-color: rgb(255, 255, 255);&quot;&gt;var2&lt;/span&gt;&lt;/blockquote&gt;" style="text;strokeColor=none;fillColor=none;align=left;verticalAlign=middle;spacingLeft=4;spacingRight=4;overflow=hidden;points=[[0,0.5],[1,0.5]];portConstraint=eastwest;rotatable=0;whiteSpace=wrap;html=1;container=0;" parent="1" vertex="1">
                    <mxGeometry x="70" y="481" width="140" height="30" as="geometry"/>
                </mxCell>
                <mxCell id="IxbjazwBfsysKAVZ26WX-33" value="TopVar2" style="text;strokeColor=none;fillColor=none;align=left;verticalAlign=middle;spacingLeft=4;spacingRight=4;overflow=hidden;points=[[0,0.5],[1,0.5]];portConstraint=eastwest;rotatable=0;whiteSpace=wrap;html=1;container=0;" parent="1" vertex="1">
                    <mxGeometry x="70" y="511" width="140" height="30" as="geometry"/>
                </mxCell>
                <mxCell id="IxbjazwBfsysKAVZ26WX-34" value="&lt;blockquote style=&quot;margin: 0 0 0 40px; border: none; padding: 0px;&quot;&gt;&lt;span style=&quot;background-color: rgb(255, 255, 255);&quot;&gt;var3&lt;/span&gt;&lt;/blockquote&gt;" style="text;strokeColor=none;fillColor=none;align=left;verticalAlign=middle;spacingLeft=4;spacingRight=4;overflow=hidden;points=[[0,0.5],[1,0.5]];portConstraint=eastwest;rotatable=0;whiteSpace=wrap;html=1;container=0;" parent="1" vertex="1">
                    <mxGeometry x="70" y="541" width="140" height="30" as="geometry"/>
                </mxCell>
                <mxCell id="IxbjazwBfsysKAVZ26WX-35" value="TopVar1" style="text;strokeColor=none;fillColor=none;align=left;verticalAlign=middle;spacingLeft=4;spacingRight=4;overflow=hidden;points=[[0,0.5],[1,0.5]];portConstraint=eastwest;rotatable=0;whiteSpace=wrap;html=1;container=0;" parent="1" vertex="1">
                    <mxGeometry x="285" y="421" width="140" height="30" as="geometry"/>
                </mxCell>
                <mxCell id="IxbjazwBfsysKAVZ26WX-36" value="&lt;blockquote style=&quot;margin: 0 0 0 40px; border: none; padding: 0px;&quot;&gt;&lt;span style=&quot;background-color: rgb(255, 255, 255);&quot;&gt;--&lt;/span&gt;&lt;/blockquote&gt;" style="text;strokeColor=none;fillColor=none;align=left;verticalAlign=middle;spacingLeft=4;spacingRight=4;overflow=hidden;points=[[0,0.5],[1,0.5]];portConstraint=eastwest;rotatable=0;whiteSpace=wrap;html=1;container=0;" parent="1" vertex="1">
                    <mxGeometry x="285" y="451" width="140" height="30" as="geometry"/>
                </mxCell>
                <mxCell id="IxbjazwBfsysKAVZ26WX-37" value="&lt;blockquote style=&quot;margin: 0 0 0 40px; border: none; padding: 0px;&quot;&gt;&lt;span style=&quot;background-color: rgb(255, 255, 255);&quot;&gt;var2&lt;/span&gt;&lt;/blockquote&gt;" style="text;strokeColor=none;fillColor=none;align=left;verticalAlign=middle;spacingLeft=4;spacingRight=4;overflow=hidden;points=[[0,0.5],[1,0.5]];portConstraint=eastwest;rotatable=0;whiteSpace=wrap;html=1;container=0;" parent="1" vertex="1">
                    <mxGeometry x="285" y="481" width="140" height="30" as="geometry"/>
                </mxCell>
                <mxCell id="IxbjazwBfsysKAVZ26WX-38" value="TopVar2" style="text;strokeColor=none;fillColor=none;align=left;verticalAlign=middle;spacingLeft=4;spacingRight=4;overflow=hidden;points=[[0,0.5],[1,0.5]];portConstraint=eastwest;rotatable=0;whiteSpace=wrap;html=1;container=0;" parent="1" vertex="1">
                    <mxGeometry x="285" y="511" width="140" height="30" as="geometry"/>
                </mxCell>
                <mxCell id="IxbjazwBfsysKAVZ26WX-39" value="&lt;blockquote style=&quot;margin: 0 0 0 40px; border: none; padding: 0px;&quot;&gt;&lt;span style=&quot;background-color: rgb(255, 255, 255);&quot;&gt;--&lt;/span&gt;&lt;/blockquote&gt;" style="text;strokeColor=none;fillColor=none;align=left;verticalAlign=middle;spacingLeft=4;spacingRight=4;overflow=hidden;points=[[0,0.5],[1,0.5]];portConstraint=eastwest;rotatable=0;whiteSpace=wrap;html=1;container=0;" parent="1" vertex="1">
                    <mxGeometry x="285" y="541" width="140" height="30" as="geometry"/>
                </mxCell>
                <mxCell id="IxbjazwBfsysKAVZ26WX-40" value="TopVar1" style="text;strokeColor=none;fillColor=none;align=left;verticalAlign=middle;spacingLeft=4;spacingRight=4;overflow=hidden;points=[[0,0.5],[1,0.5]];portConstraint=eastwest;rotatable=0;whiteSpace=wrap;html=1;container=0;" parent="1" vertex="1">
                    <mxGeometry x="500" y="421" width="140" height="30" as="geometry"/>
                </mxCell>
                <mxCell id="IxbjazwBfsysKAVZ26WX-41" value="&lt;blockquote style=&quot;margin: 0 0 0 40px; border: none; padding: 0px;&quot;&gt;&lt;span style=&quot;background-color: rgb(255, 255, 255);&quot;&gt;var1 (Default)&lt;/span&gt;&lt;/blockquote&gt;" style="text;strokeColor=none;fillColor=none;align=left;verticalAlign=middle;spacingLeft=4;spacingRight=4;overflow=hidden;points=[[0,0.5],[1,0.5]];portConstraint=eastwest;rotatable=0;whiteSpace=wrap;html=1;container=0;" parent="1" vertex="1">
                    <mxGeometry x="500" y="451" width="140" height="30" as="geometry"/>
                </mxCell>
                <mxCell id="IxbjazwBfsysKAVZ26WX-42" value="&lt;blockquote style=&quot;margin: 0 0 0 40px; border: none; padding: 0px;&quot;&gt;&lt;span style=&quot;background-color: rgb(255, 255, 255);&quot;&gt;var2&lt;/span&gt;&lt;/blockquote&gt;" style="text;strokeColor=none;fillColor=none;align=left;verticalAlign=middle;spacingLeft=4;spacingRight=4;overflow=hidden;points=[[0,0.5],[1,0.5]];portConstraint=eastwest;rotatable=0;whiteSpace=wrap;html=1;container=0;" parent="1" vertex="1">
                    <mxGeometry x="500" y="481" width="140" height="30" as="geometry"/>
                </mxCell>
                <mxCell id="IxbjazwBfsysKAVZ26WX-43" value="TopVar2" style="text;strokeColor=none;fillColor=none;align=left;verticalAlign=middle;spacingLeft=4;spacingRight=4;overflow=hidden;points=[[0,0.5],[1,0.5]];portConstraint=eastwest;rotatable=0;whiteSpace=wrap;html=1;container=0;" parent="1" vertex="1">
                    <mxGeometry x="500" y="511" width="140" height="30" as="geometry"/>
                </mxCell>
                <mxCell id="IxbjazwBfsysKAVZ26WX-44" value="&lt;blockquote style=&quot;margin: 0 0 0 40px; border: none; padding: 0px;&quot;&gt;&lt;span style=&quot;background-color: rgb(255, 255, 255);&quot;&gt;var3 (Default)&lt;/span&gt;&lt;/blockquote&gt;" style="text;strokeColor=none;fillColor=none;align=left;verticalAlign=middle;spacingLeft=4;spacingRight=4;overflow=hidden;points=[[0,0.5],[1,0.5]];portConstraint=eastwest;rotatable=0;whiteSpace=wrap;html=1;container=0;" parent="1" vertex="1">
                    <mxGeometry x="500" y="541" width="140" height="30" as="geometry"/>
                </mxCell>
                <mxCell id="IxbjazwBfsysKAVZ26WX-45" value="" style="strokeWidth=2;html=1;shape=mxgraph.flowchart.annotation_2;align=left;labelPosition=right;pointerEvents=1;direction=south;" parent="1" vertex="1">
                    <mxGeometry x="70" y="360" width="360" height="20" as="geometry"/>
                </mxCell>
                <mxCell id="IxbjazwBfsysKAVZ26WX-46" value="Backend Code" style="text;html=1;align=center;verticalAlign=middle;whiteSpace=wrap;rounded=0;" parent="1" vertex="1">
                    <mxGeometry x="199" y="338" width="100" height="30" as="geometry"/>
                </mxCell>
                <mxCell id="IxbjazwBfsysKAVZ26WX-47" value="" style="rounded=0;whiteSpace=wrap;html=1;dashed=1;html=1;dashPattern=1 3;align=left;container=0;" parent="1" vertex="1">
                    <mxGeometry x="50" y="630" width="630" height="290" as="geometry"/>
                </mxCell>
                <mxCell id="IxbjazwBfsysKAVZ26WX-48" value="Default" style="swimlane;fontStyle=0;childLayout=stackLayout;horizontal=1;startSize=30;horizontalStack=0;resizeParent=1;resizeParentMax=0;resizeLast=0;collapsible=1;marginBottom=0;whiteSpace=wrap;html=1;container=0;" parent="1" vertex="1">
                    <mxGeometry x="70" y="721" width="140" height="180" as="geometry"/>
                </mxCell>
                <mxCell id="IxbjazwBfsysKAVZ26WX-49" value="Taylor Morrison" style="swimlane;fontStyle=0;childLayout=stackLayout;horizontal=1;startSize=30;horizontalStack=0;resizeParent=1;resizeParentMax=0;resizeLast=0;collapsible=1;marginBottom=0;whiteSpace=wrap;html=1;container=0;" parent="1" vertex="1">
                    <mxGeometry x="285" y="721" width="140" height="180" as="geometry"/>
                </mxCell>
                <mxCell id="IxbjazwBfsysKAVZ26WX-50" value="&lt;b&gt;Scripts to fill in 'gaps' where current themes apply values (implicitly) from default to current themes applying those same values, but explicitly.......&lt;/b&gt;" style="text;html=1;align=center;verticalAlign=middle;whiteSpace=wrap;rounded=0;container=0;" parent="1" vertex="1">
                    <mxGeometry x="134" y="647" width="470" height="30" as="geometry"/>
                </mxCell>
                <mxCell id="IxbjazwBfsysKAVZ26WX-51" value="Taylor Morrison" style="swimlane;fontStyle=0;childLayout=stackLayout;horizontal=1;startSize=30;horizontalStack=0;resizeParent=1;resizeParentMax=0;resizeLast=0;collapsible=1;marginBottom=0;whiteSpace=wrap;html=1;container=0;" parent="1" vertex="1">
                    <mxGeometry x="500" y="721" width="140" height="180" as="geometry"/>
                </mxCell>
                <mxCell id="IxbjazwBfsysKAVZ26WX-52" value="Post-Scripted" style="text;html=1;align=center;verticalAlign=middle;whiteSpace=wrap;rounded=0;container=0;" parent="1" vertex="1">
                    <mxGeometry x="540" y="698" width="90" height="30" as="geometry"/>
                </mxCell>
                <mxCell id="IxbjazwBfsysKAVZ26WX-53" value="TopVar1" style="text;strokeColor=none;fillColor=none;align=left;verticalAlign=middle;spacingLeft=4;spacingRight=4;overflow=hidden;points=[[0,0.5],[1,0.5]];portConstraint=eastwest;rotatable=0;whiteSpace=wrap;html=1;container=0;" parent="1" vertex="1">
                    <mxGeometry x="70" y="751" width="140" height="30" as="geometry"/>
                </mxCell>
                <mxCell id="IxbjazwBfsysKAVZ26WX-54" style="edgeStyle=orthogonalEdgeStyle;rounded=0;orthogonalLoop=1;jettySize=auto;html=1;exitX=1;exitY=0.5;exitDx=0;exitDy=0;" parent="1" source="IxbjazwBfsysKAVZ26WX-55" target="IxbjazwBfsysKAVZ26WX-66" edge="1">
                    <mxGeometry relative="1" as="geometry"/>
                </mxCell>
                <mxCell id="IxbjazwBfsysKAVZ26WX-55" value="&lt;blockquote style=&quot;margin: 0 0 0 40px; border: none; padding: 0px;&quot;&gt;&lt;span style=&quot;background-color: rgb(255, 255, 255);&quot;&gt;var1&lt;/span&gt;&lt;/blockquote&gt;" style="text;strokeColor=none;fillColor=none;align=left;verticalAlign=middle;spacingLeft=4;spacingRight=4;overflow=hidden;points=[[0,0.5],[1,0.5]];portConstraint=eastwest;rotatable=0;whiteSpace=wrap;html=1;container=0;" parent="1" vertex="1">
                    <mxGeometry x="70" y="781" width="140" height="30" as="geometry"/>
                </mxCell>
                <mxCell id="IxbjazwBfsysKAVZ26WX-56" value="&lt;blockquote style=&quot;margin: 0 0 0 40px; border: none; padding: 0px;&quot;&gt;&lt;span style=&quot;background-color: rgb(255, 255, 255);&quot;&gt;var2&lt;/span&gt;&lt;/blockquote&gt;" style="text;strokeColor=none;fillColor=none;align=left;verticalAlign=middle;spacingLeft=4;spacingRight=4;overflow=hidden;points=[[0,0.5],[1,0.5]];portConstraint=eastwest;rotatable=0;whiteSpace=wrap;html=1;container=0;" parent="1" vertex="1">
                    <mxGeometry x="70" y="811" width="140" height="30" as="geometry"/>
                </mxCell>
                <mxCell id="IxbjazwBfsysKAVZ26WX-57" value="TopVar2" style="text;strokeColor=none;fillColor=none;align=left;verticalAlign=middle;spacingLeft=4;spacingRight=4;overflow=hidden;points=[[0,0.5],[1,0.5]];portConstraint=eastwest;rotatable=0;whiteSpace=wrap;html=1;container=0;" parent="1" vertex="1">
                    <mxGeometry x="70" y="841" width="140" height="30" as="geometry"/>
                </mxCell>
                <mxCell id="IxbjazwBfsysKAVZ26WX-58" style="edgeStyle=orthogonalEdgeStyle;rounded=0;orthogonalLoop=1;jettySize=auto;html=1;exitX=1;exitY=0.5;exitDx=0;exitDy=0;" parent="1" source="IxbjazwBfsysKAVZ26WX-59" target="IxbjazwBfsysKAVZ26WX-69" edge="1">
                    <mxGeometry relative="1" as="geometry"/>
                </mxCell>
                <mxCell id="IxbjazwBfsysKAVZ26WX-59" value="&lt;blockquote style=&quot;margin: 0 0 0 40px; border: none; padding: 0px;&quot;&gt;&lt;span style=&quot;background-color: rgb(255, 255, 255);&quot;&gt;var3&lt;/span&gt;&lt;/blockquote&gt;" style="text;strokeColor=none;fillColor=none;align=left;verticalAlign=middle;spacingLeft=4;spacingRight=4;overflow=hidden;points=[[0,0.5],[1,0.5]];portConstraint=eastwest;rotatable=0;whiteSpace=wrap;html=1;container=0;" parent="1" vertex="1">
                    <mxGeometry x="70" y="871" width="140" height="30" as="geometry"/>
                </mxCell>
                <mxCell id="IxbjazwBfsysKAVZ26WX-60" value="TopVar1" style="text;strokeColor=none;fillColor=none;align=left;verticalAlign=middle;spacingLeft=4;spacingRight=4;overflow=hidden;points=[[0,0.5],[1,0.5]];portConstraint=eastwest;rotatable=0;whiteSpace=wrap;html=1;container=0;" parent="1" vertex="1">
                    <mxGeometry x="285" y="751" width="140" height="30" as="geometry"/>
                </mxCell>
                <mxCell id="IxbjazwBfsysKAVZ26WX-61" value="&lt;blockquote style=&quot;margin: 0 0 0 40px; border: none; padding: 0px;&quot;&gt;&lt;span style=&quot;background-color: rgb(255, 255, 255);&quot;&gt;--&lt;/span&gt;&lt;/blockquote&gt;" style="text;strokeColor=none;fillColor=none;align=left;verticalAlign=middle;spacingLeft=4;spacingRight=4;overflow=hidden;points=[[0,0.5],[1,0.5]];portConstraint=eastwest;rotatable=0;whiteSpace=wrap;html=1;container=0;" parent="1" vertex="1">
                    <mxGeometry x="285" y="781" width="140" height="30" as="geometry"/>
                </mxCell>
                <mxCell id="IxbjazwBfsysKAVZ26WX-62" value="&lt;blockquote style=&quot;margin: 0 0 0 40px; border: none; padding: 0px;&quot;&gt;&lt;span style=&quot;background-color: rgb(255, 255, 255);&quot;&gt;var2&lt;/span&gt;&lt;/blockquote&gt;" style="text;strokeColor=none;fillColor=none;align=left;verticalAlign=middle;spacingLeft=4;spacingRight=4;overflow=hidden;points=[[0,0.5],[1,0.5]];portConstraint=eastwest;rotatable=0;whiteSpace=wrap;html=1;container=0;" parent="1" vertex="1">
                    <mxGeometry x="285" y="811" width="140" height="30" as="geometry"/>
                </mxCell>
                <mxCell id="IxbjazwBfsysKAVZ26WX-63" value="TopVar2" style="text;strokeColor=none;fillColor=none;align=left;verticalAlign=middle;spacingLeft=4;spacingRight=4;overflow=hidden;points=[[0,0.5],[1,0.5]];portConstraint=eastwest;rotatable=0;whiteSpace=wrap;html=1;container=0;" parent="1" vertex="1">
                    <mxGeometry x="285" y="841" width="140" height="30" as="geometry"/>
                </mxCell>
                <mxCell id="IxbjazwBfsysKAVZ26WX-64" value="&lt;blockquote style=&quot;margin: 0 0 0 40px; border: none; padding: 0px;&quot;&gt;&lt;span style=&quot;background-color: rgb(255, 255, 255);&quot;&gt;--&lt;/span&gt;&lt;/blockquote&gt;" style="text;strokeColor=none;fillColor=none;align=left;verticalAlign=middle;spacingLeft=4;spacingRight=4;overflow=hidden;points=[[0,0.5],[1,0.5]];portConstraint=eastwest;rotatable=0;whiteSpace=wrap;html=1;container=0;" parent="1" vertex="1">
                    <mxGeometry x="285" y="871" width="140" height="30" as="geometry"/>
                </mxCell>
                <mxCell id="IxbjazwBfsysKAVZ26WX-65" value="TopVar1" style="text;strokeColor=none;fillColor=none;align=left;verticalAlign=middle;spacingLeft=4;spacingRight=4;overflow=hidden;points=[[0,0.5],[1,0.5]];portConstraint=eastwest;rotatable=0;whiteSpace=wrap;html=1;container=0;" parent="1" vertex="1">
                    <mxGeometry x="500" y="751" width="140" height="30" as="geometry"/>
                </mxCell>
                <mxCell id="IxbjazwBfsysKAVZ26WX-66" value="&lt;blockquote style=&quot;margin: 0 0 0 40px; border: none; padding: 0px;&quot;&gt;&lt;span style=&quot;background-color: rgb(255, 255, 255);&quot;&gt;var1&lt;/span&gt;&lt;/blockquote&gt;" style="text;strokeColor=none;fillColor=none;align=left;verticalAlign=middle;spacingLeft=4;spacingRight=4;overflow=hidden;points=[[0,0.5],[1,0.5]];portConstraint=eastwest;rotatable=0;whiteSpace=wrap;html=1;container=0;" parent="1" vertex="1">
                    <mxGeometry x="500" y="781" width="140" height="30" as="geometry"/>
                </mxCell>
                <mxCell id="IxbjazwBfsysKAVZ26WX-67" value="&lt;blockquote style=&quot;margin: 0 0 0 40px; border: none; padding: 0px;&quot;&gt;&lt;span style=&quot;background-color: rgb(255, 255, 255);&quot;&gt;var2&lt;/span&gt;&lt;/blockquote&gt;" style="text;strokeColor=none;fillColor=none;align=left;verticalAlign=middle;spacingLeft=4;spacingRight=4;overflow=hidden;points=[[0,0.5],[1,0.5]];portConstraint=eastwest;rotatable=0;whiteSpace=wrap;html=1;container=0;" parent="1" vertex="1">
                    <mxGeometry x="500" y="811" width="140" height="30" as="geometry"/>
                </mxCell>
                <mxCell id="IxbjazwBfsysKAVZ26WX-68" value="TopVar2" style="text;strokeColor=none;fillColor=none;align=left;verticalAlign=middle;spacingLeft=4;spacingRight=4;overflow=hidden;points=[[0,0.5],[1,0.5]];portConstraint=eastwest;rotatable=0;whiteSpace=wrap;html=1;container=0;" parent="1" vertex="1">
                    <mxGeometry x="500" y="841" width="140" height="30" as="geometry"/>
                </mxCell>
                <mxCell id="IxbjazwBfsysKAVZ26WX-69" value="&lt;blockquote style=&quot;margin: 0 0 0 40px; border: none; padding: 0px;&quot;&gt;&lt;span style=&quot;background-color: rgb(255, 255, 255);&quot;&gt;var3 (Default)&lt;/span&gt;&lt;/blockquote&gt;" style="text;strokeColor=none;fillColor=none;align=left;verticalAlign=middle;spacingLeft=4;spacingRight=4;overflow=hidden;points=[[0,0.5],[1,0.5]];portConstraint=eastwest;rotatable=0;whiteSpace=wrap;html=1;container=0;" parent="1" vertex="1">
                    <mxGeometry x="500" y="871" width="140" height="30" as="geometry"/>
                </mxCell>
                <mxCell id="IxbjazwBfsysKAVZ26WX-70" value="Existing" style="text;html=1;align=center;verticalAlign=middle;whiteSpace=wrap;rounded=0;container=0;" parent="1" vertex="1">
                    <mxGeometry x="325" y="700" width="60" height="30" as="geometry"/>
                </mxCell>
            </root>
        </mxGraphModel>
    </diagram>
    <diagram id="arHjGuw3FphCiEhhG9Vo" name="Implicit Implications">
        <mxGraphModel dx="1685" dy="1146" grid="1" gridSize="10" guides="1" tooltips="1" connect="1" arrows="1" fold="1" page="1" pageScale="1" pageWidth="850" pageHeight="1100" math="0" shadow="0">
            <root>
                <mxCell id="0"/>
                <mxCell id="1" parent="0"/>
                <mxCell id="65uw4Bx5TESUcm9UQ25h-37" value="Theme Totality" style="swimlane;whiteSpace=wrap;html=1;startSize=23;" parent="1" vertex="1">
                    <mxGeometry x="20" y="20" width="970" height="300" as="geometry">
                        <mxRectangle x="10" y="660" width="80" height="30" as="alternateBounds"/>
                    </mxGeometry>
                </mxCell>
                <mxCell id="KEzRaeWxfCXa6C8uzDad-1" value="Default theme in DB" style="swimlane;fontStyle=0;childLayout=stackLayout;horizontal=1;startSize=20;horizontalStack=0;resizeParent=1;resizeParentMax=0;resizeLast=0;collapsible=1;marginBottom=0;whiteSpace=wrap;html=1;" parent="65uw4Bx5TESUcm9UQ25h-37" vertex="1">
                    <mxGeometry x="290" y="110" width="160" height="170" as="geometry"/>
                </mxCell>
                <mxCell id="KEzRaeWxfCXa6C8uzDad-2" value="Var1" style="text;strokeColor=none;fillColor=none;align=left;verticalAlign=middle;spacingLeft=4;spacingRight=4;overflow=hidden;points=[[0,0.5],[1,0.5]];portConstraint=eastwest;rotatable=0;whiteSpace=wrap;html=1;" parent="KEzRaeWxfCXa6C8uzDad-1" vertex="1">
                    <mxGeometry y="20" width="160" height="30" as="geometry"/>
                </mxCell>
                <mxCell id="KEzRaeWxfCXa6C8uzDad-3" value="Var2" style="text;strokeColor=none;fillColor=none;align=left;verticalAlign=middle;spacingLeft=4;spacingRight=4;overflow=hidden;points=[[0,0.5],[1,0.5]];portConstraint=eastwest;rotatable=0;whiteSpace=wrap;html=1;" parent="KEzRaeWxfCXa6C8uzDad-1" vertex="1">
                    <mxGeometry y="50" width="160" height="30" as="geometry"/>
                </mxCell>
                <mxCell id="KEzRaeWxfCXa6C8uzDad-4" value="Var3" style="text;strokeColor=none;fillColor=none;align=left;verticalAlign=middle;spacingLeft=4;spacingRight=4;overflow=hidden;points=[[0,0.5],[1,0.5]];portConstraint=eastwest;rotatable=0;whiteSpace=wrap;html=1;" parent="KEzRaeWxfCXa6C8uzDad-1" vertex="1">
                    <mxGeometry y="80" width="160" height="30" as="geometry"/>
                </mxCell>
                <mxCell id="KEzRaeWxfCXa6C8uzDad-5" value="Var4" style="text;strokeColor=none;fillColor=none;align=left;verticalAlign=middle;spacingLeft=4;spacingRight=4;overflow=hidden;points=[[0,0.5],[1,0.5]];portConstraint=eastwest;rotatable=0;whiteSpace=wrap;html=1;" parent="KEzRaeWxfCXa6C8uzDad-1" vertex="1">
                    <mxGeometry y="110" width="160" height="30" as="geometry"/>
                </mxCell>
                <mxCell id="KEzRaeWxfCXa6C8uzDad-6" value="..... etc" style="text;strokeColor=none;fillColor=none;align=left;verticalAlign=middle;spacingLeft=4;spacingRight=4;overflow=hidden;points=[[0,0.5],[1,0.5]];portConstraint=eastwest;rotatable=0;whiteSpace=wrap;html=1;" parent="KEzRaeWxfCXa6C8uzDad-1" vertex="1">
                    <mxGeometry y="140" width="160" height="30" as="geometry"/>
                </mxCell>
                <mxCell id="KEzRaeWxfCXa6C8uzDad-8" value="GroupVariableValues" style="swimlane;fontStyle=0;childLayout=stackLayout;horizontal=1;startSize=30;horizontalStack=0;resizeParent=1;resizeParentMax=0;resizeLast=0;collapsible=1;marginBottom=0;whiteSpace=wrap;html=1;" parent="65uw4Bx5TESUcm9UQ25h-37" vertex="1">
                    <mxGeometry x="550" y="160" width="140" height="60" as="geometry"/>
                </mxCell>
                <mxCell id="KEzRaeWxfCXa6C8uzDad-9" value="Group 1 (Var3, Var4)" style="text;strokeColor=none;fillColor=none;align=left;verticalAlign=middle;spacingLeft=4;spacingRight=4;overflow=hidden;points=[[0,0.5],[1,0.5]];portConstraint=eastwest;rotatable=0;whiteSpace=wrap;html=1;" parent="KEzRaeWxfCXa6C8uzDad-8" vertex="1">
                    <mxGeometry y="30" width="140" height="30" as="geometry"/>
                </mxCell>
                <mxCell id="KEzRaeWxfCXa6C8uzDad-12" value="ThemeableVariableValues" style="swimlane;fontStyle=0;childLayout=stackLayout;horizontal=1;startSize=30;horizontalStack=0;resizeParent=1;resizeParentMax=0;resizeLast=0;collapsible=1;marginBottom=0;whiteSpace=wrap;html=1;" parent="65uw4Bx5TESUcm9UQ25h-37" vertex="1">
                    <mxGeometry x="790" y="160" width="160" height="60" as="geometry"/>
                </mxCell>
                <mxCell id="KEzRaeWxfCXa6C8uzDad-13" value="Var4" style="text;strokeColor=none;fillColor=none;align=left;verticalAlign=middle;spacingLeft=4;spacingRight=4;overflow=hidden;points=[[0,0.5],[1,0.5]];portConstraint=eastwest;rotatable=0;whiteSpace=wrap;html=1;" parent="KEzRaeWxfCXa6C8uzDad-12" vertex="1">
                    <mxGeometry y="30" width="160" height="30" as="geometry"/>
                </mxCell>
                <mxCell id="4E74VlosZN33RyjYWTIC-1" value="Default theme (local CSS file)" style="swimlane;fontStyle=0;childLayout=stackLayout;horizontal=1;startSize=30;horizontalStack=0;resizeParent=1;resizeParentMax=0;resizeLast=0;collapsible=1;marginBottom=0;whiteSpace=wrap;html=1;" parent="65uw4Bx5TESUcm9UQ25h-37" vertex="1">
                    <mxGeometry x="30" y="100" width="160" height="180" as="geometry"/>
                </mxCell>
                <mxCell id="4E74VlosZN33RyjYWTIC-2" value="Var1" style="text;strokeColor=none;fillColor=none;align=left;verticalAlign=middle;spacingLeft=4;spacingRight=4;overflow=hidden;points=[[0,0.5],[1,0.5]];portConstraint=eastwest;rotatable=0;whiteSpace=wrap;html=1;" parent="4E74VlosZN33RyjYWTIC-1" vertex="1">
                    <mxGeometry y="30" width="160" height="30" as="geometry"/>
                </mxCell>
                <mxCell id="4E74VlosZN33RyjYWTIC-3" value="Var2" style="text;strokeColor=none;fillColor=none;align=left;verticalAlign=middle;spacingLeft=4;spacingRight=4;overflow=hidden;points=[[0,0.5],[1,0.5]];portConstraint=eastwest;rotatable=0;whiteSpace=wrap;html=1;" parent="4E74VlosZN33RyjYWTIC-1" vertex="1">
                    <mxGeometry y="60" width="160" height="30" as="geometry"/>
                </mxCell>
                <mxCell id="4E74VlosZN33RyjYWTIC-4" value="Var3" style="text;strokeColor=none;fillColor=none;align=left;verticalAlign=middle;spacingLeft=4;spacingRight=4;overflow=hidden;points=[[0,0.5],[1,0.5]];portConstraint=eastwest;rotatable=0;whiteSpace=wrap;html=1;" parent="4E74VlosZN33RyjYWTIC-1" vertex="1">
                    <mxGeometry y="90" width="160" height="30" as="geometry"/>
                </mxCell>
                <mxCell id="4E74VlosZN33RyjYWTIC-5" value="Var4" style="text;strokeColor=none;fillColor=none;align=left;verticalAlign=middle;spacingLeft=4;spacingRight=4;overflow=hidden;points=[[0,0.5],[1,0.5]];portConstraint=eastwest;rotatable=0;whiteSpace=wrap;html=1;" parent="4E74VlosZN33RyjYWTIC-1" vertex="1">
                    <mxGeometry y="120" width="160" height="30" as="geometry"/>
                </mxCell>
                <mxCell id="4E74VlosZN33RyjYWTIC-6" value="..... etc" style="text;strokeColor=none;fillColor=none;align=left;verticalAlign=middle;spacingLeft=4;spacingRight=4;overflow=hidden;points=[[0,0.5],[1,0.5]];portConstraint=eastwest;rotatable=0;whiteSpace=wrap;html=1;" parent="4E74VlosZN33RyjYWTIC-1" vertex="1">
                    <mxGeometry y="150" width="160" height="30" as="geometry"/>
                </mxCell>
                <mxCell id="4E74VlosZN33RyjYWTIC-15" value="" style="triangle;whiteSpace=wrap;html=1;rotation=-180;" parent="65uw4Bx5TESUcm9UQ25h-37" vertex="1">
                    <mxGeometry x="210" y="150" width="60" height="80" as="geometry"/>
                </mxCell>
                <mxCell id="4E74VlosZN33RyjYWTIC-16" value="&lt;font style=&quot;font-size: 14px; font-weight: normal;&quot;&gt;If Headache&lt;br&gt;flag on&lt;/font&gt;" style="text;strokeColor=none;fillColor=none;html=1;fontSize=24;fontStyle=1;verticalAlign=middle;align=center;" parent="65uw4Bx5TESUcm9UQ25h-37" vertex="1">
                    <mxGeometry x="200" y="100" width="100" height="40" as="geometry"/>
                </mxCell>
                <mxCell id="4E74VlosZN33RyjYWTIC-17" value="" style="triangle;whiteSpace=wrap;html=1;rotation=-180;" parent="65uw4Bx5TESUcm9UQ25h-37" vertex="1">
                    <mxGeometry x="470" y="150" width="60" height="80" as="geometry"/>
                </mxCell>
                <mxCell id="4E74VlosZN33RyjYWTIC-19" value="&lt;span style=&quot;font-weight: normal; font-size: 14px;&quot;&gt;&lt;span style=&quot;&quot;&gt;Group Values&lt;br&gt;&lt;/span&gt;for theme&lt;/span&gt;" style="text;strokeColor=none;fillColor=none;html=1;fontSize=24;fontStyle=1;verticalAlign=middle;align=center;" parent="65uw4Bx5TESUcm9UQ25h-37" vertex="1">
                    <mxGeometry x="470" y="100" width="100" height="40" as="geometry"/>
                </mxCell>
                <mxCell id="4E74VlosZN33RyjYWTIC-20" value="" style="triangle;whiteSpace=wrap;html=1;rotation=-180;" parent="65uw4Bx5TESUcm9UQ25h-37" vertex="1">
                    <mxGeometry x="710" y="150" width="60" height="80" as="geometry"/>
                </mxCell>
                <mxCell id="4E74VlosZN33RyjYWTIC-21" value="&lt;span style=&quot;font-size: 14px; font-weight: 400;&quot;&gt;Explict Varible &lt;br&gt;Values for Theme&lt;/span&gt;" style="text;strokeColor=none;fillColor=none;html=1;fontSize=24;fontStyle=1;verticalAlign=middle;align=center;" parent="65uw4Bx5TESUcm9UQ25h-37" vertex="1">
                    <mxGeometry x="710" y="100" width="100" height="40" as="geometry"/>
                </mxCell>
                <mxCell id="4E74VlosZN33RyjYWTIC-22" value="Whats my value" style="swimlane;whiteSpace=wrap;html=1;fontSize=14;" parent="1" vertex="1">
                    <mxGeometry x="50" y="340" width="970" height="760" as="geometry"/>
                </mxCell>
                <mxCell id="4E74VlosZN33RyjYWTIC-76" style="edgeStyle=none;html=1;entryX=0.5;entryY=0;entryDx=0;entryDy=0;fontSize=14;" parent="4E74VlosZN33RyjYWTIC-22" source="4E74VlosZN33RyjYWTIC-23" target="4E74VlosZN33RyjYWTIC-24" edge="1">
                    <mxGeometry relative="1" as="geometry"/>
                </mxCell>
                <mxCell id="4E74VlosZN33RyjYWTIC-23" value="What is a specific variable's value for a theme, call it z?&lt;br&gt;ThemeableVariable = x&lt;br&gt;&amp;amp;&lt;br&gt;Theme = y" style="rounded=0;whiteSpace=wrap;html=1;fontSize=14;" parent="4E74VlosZN33RyjYWTIC-22" vertex="1">
                    <mxGeometry x="20" y="40" width="220" height="110" as="geometry"/>
                </mxCell>
                <mxCell id="4E74VlosZN33RyjYWTIC-28" style="edgeStyle=none;html=1;entryX=0.5;entryY=0;entryDx=0;entryDy=0;fontSize=14;" parent="4E74VlosZN33RyjYWTIC-22" source="4E74VlosZN33RyjYWTIC-24" target="4E74VlosZN33RyjYWTIC-27" edge="1">
                    <mxGeometry relative="1" as="geometry"/>
                </mxCell>
                <mxCell id="4E74VlosZN33RyjYWTIC-29" value="False" style="edgeLabel;html=1;align=center;verticalAlign=middle;resizable=0;points=[];fontSize=14;" parent="4E74VlosZN33RyjYWTIC-28" vertex="1" connectable="0">
                    <mxGeometry x="-0.456" y="-1" relative="1" as="geometry">
                        <mxPoint as="offset"/>
                    </mxGeometry>
                </mxCell>
                <mxCell id="4E74VlosZN33RyjYWTIC-24" value="Status of Feature Flag &lt;br&gt;'VDS Uses DB Themes'?" style="rhombus;whiteSpace=wrap;html=1;fontSize=14;" parent="4E74VlosZN33RyjYWTIC-22" vertex="1">
                    <mxGeometry x="35" y="180" width="190" height="140" as="geometry"/>
                </mxCell>
                <mxCell id="4E74VlosZN33RyjYWTIC-75" style="edgeStyle=none;html=1;entryX=0;entryY=0.5;entryDx=0;entryDy=0;fontSize=14;" parent="4E74VlosZN33RyjYWTIC-22" source="4E74VlosZN33RyjYWTIC-27" target="4E74VlosZN33RyjYWTIC-71" edge="1">
                    <mxGeometry relative="1" as="geometry"/>
                </mxCell>
                <mxCell id="4E74VlosZN33RyjYWTIC-27" value="Z is set to value that is explicitly set in CSS file" style="rounded=0;whiteSpace=wrap;html=1;fontSize=14;" parent="4E74VlosZN33RyjYWTIC-22" vertex="1">
                    <mxGeometry x="55" y="420" width="150" height="90" as="geometry"/>
                </mxCell>
                <mxCell id="4E74VlosZN33RyjYWTIC-32" style="edgeStyle=none;html=1;entryX=0;entryY=0.5;entryDx=0;entryDy=0;fontSize=14;" parent="4E74VlosZN33RyjYWTIC-22" source="4E74VlosZN33RyjYWTIC-30" target="4E74VlosZN33RyjYWTIC-61" edge="1">
                    <mxGeometry relative="1" as="geometry">
                        <mxPoint x="460" y="250" as="targetPoint"/>
                    </mxGeometry>
                </mxCell>
                <mxCell id="4E74VlosZN33RyjYWTIC-30" value="Z = Theme = Default at Variable X" style="rounded=0;whiteSpace=wrap;html=1;fontSize=14;" parent="4E74VlosZN33RyjYWTIC-22" vertex="1">
                    <mxGeometry x="300" y="220" width="120" height="60" as="geometry"/>
                </mxCell>
                <mxCell id="4E74VlosZN33RyjYWTIC-25" style="edgeStyle=none;html=1;fontSize=14;exitX=1;exitY=0.5;exitDx=0;exitDy=0;entryX=0;entryY=0.5;entryDx=0;entryDy=0;" parent="4E74VlosZN33RyjYWTIC-22" source="4E74VlosZN33RyjYWTIC-24" target="4E74VlosZN33RyjYWTIC-30" edge="1">
                    <mxGeometry relative="1" as="geometry">
                        <mxPoint x="340" y="250" as="targetPoint"/>
                    </mxGeometry>
                </mxCell>
                <mxCell id="4E74VlosZN33RyjYWTIC-26" value="True" style="edgeLabel;html=1;align=center;verticalAlign=middle;resizable=0;points=[];fontSize=14;" parent="4E74VlosZN33RyjYWTIC-25" vertex="1" connectable="0">
                    <mxGeometry x="-0.2909" y="3" relative="1" as="geometry">
                        <mxPoint as="offset"/>
                    </mxGeometry>
                </mxCell>
                <mxCell id="4E74VlosZN33RyjYWTIC-74" style="edgeStyle=none;html=1;entryX=1;entryY=0;entryDx=0;entryDy=0;fontSize=14;" parent="4E74VlosZN33RyjYWTIC-22" source="4E74VlosZN33RyjYWTIC-56" target="4E74VlosZN33RyjYWTIC-71" edge="1">
                    <mxGeometry relative="1" as="geometry"/>
                </mxCell>
                <mxCell id="4E74VlosZN33RyjYWTIC-56" value="Z = ThemeInternalVariable Value at Theme = Y" style="rounded=0;whiteSpace=wrap;html=1;fontSize=14;" parent="4E74VlosZN33RyjYWTIC-22" vertex="1">
                    <mxGeometry x="680" y="530" width="140" height="60" as="geometry"/>
                </mxCell>
                <mxCell id="4E74VlosZN33RyjYWTIC-66" style="edgeStyle=none;html=1;entryX=0.5;entryY=0;entryDx=0;entryDy=0;fontSize=14;" parent="4E74VlosZN33RyjYWTIC-22" source="4E74VlosZN33RyjYWTIC-61" target="4E74VlosZN33RyjYWTIC-65" edge="1">
                    <mxGeometry relative="1" as="geometry"/>
                </mxCell>
                <mxCell id="4E74VlosZN33RyjYWTIC-68" value="No" style="edgeLabel;html=1;align=center;verticalAlign=middle;resizable=0;points=[];fontSize=14;" parent="4E74VlosZN33RyjYWTIC-66" vertex="1" connectable="0">
                    <mxGeometry x="-0.6123" y="-3" relative="1" as="geometry">
                        <mxPoint as="offset"/>
                    </mxGeometry>
                </mxCell>
                <mxCell id="4E74VlosZN33RyjYWTIC-61" value="Is X contained&lt;br&gt;&amp;nbsp;in Group for Theme = y and Group has value" style="rhombus;whiteSpace=wrap;html=1;fontSize=14;" parent="4E74VlosZN33RyjYWTIC-22" vertex="1">
                    <mxGeometry x="470" y="175" width="160" height="150" as="geometry"/>
                </mxCell>
                <mxCell id="4E74VlosZN33RyjYWTIC-67" style="edgeStyle=none;html=1;fontSize=14;" parent="4E74VlosZN33RyjYWTIC-22" source="4E74VlosZN33RyjYWTIC-63" target="4E74VlosZN33RyjYWTIC-65" edge="1">
                    <mxGeometry relative="1" as="geometry"/>
                </mxCell>
                <mxCell id="4E74VlosZN33RyjYWTIC-63" value="Z = Group Variable Value" style="rounded=0;whiteSpace=wrap;html=1;fontSize=14;" parent="4E74VlosZN33RyjYWTIC-22" vertex="1">
                    <mxGeometry x="660" y="340" width="120" height="60" as="geometry"/>
                </mxCell>
                <mxCell id="4E74VlosZN33RyjYWTIC-62" style="edgeStyle=none;html=1;fontSize=14;entryX=0.5;entryY=0;entryDx=0;entryDy=0;" parent="4E74VlosZN33RyjYWTIC-22" source="4E74VlosZN33RyjYWTIC-61" target="4E74VlosZN33RyjYWTIC-63" edge="1">
                    <mxGeometry relative="1" as="geometry">
                        <mxPoint x="620" y="340" as="targetPoint"/>
                    </mxGeometry>
                </mxCell>
                <mxCell id="4E74VlosZN33RyjYWTIC-64" value="Yes" style="edgeLabel;html=1;align=center;verticalAlign=middle;resizable=0;points=[];fontSize=14;" parent="4E74VlosZN33RyjYWTIC-62" vertex="1" connectable="0">
                    <mxGeometry x="-0.5241" y="-1" relative="1" as="geometry">
                        <mxPoint as="offset"/>
                    </mxGeometry>
                </mxCell>
                <mxCell id="4E74VlosZN33RyjYWTIC-69" style="edgeStyle=none;html=1;entryX=0;entryY=0.5;entryDx=0;entryDy=0;fontSize=14;" parent="4E74VlosZN33RyjYWTIC-22" source="4E74VlosZN33RyjYWTIC-65" target="4E74VlosZN33RyjYWTIC-56" edge="1">
                    <mxGeometry relative="1" as="geometry"/>
                </mxCell>
                <mxCell id="4E74VlosZN33RyjYWTIC-70" value="Yes" style="edgeLabel;html=1;align=center;verticalAlign=middle;resizable=0;points=[];fontSize=14;" parent="4E74VlosZN33RyjYWTIC-69" vertex="1" connectable="0">
                    <mxGeometry x="-0.4406" y="-1" relative="1" as="geometry">
                        <mxPoint as="offset"/>
                    </mxGeometry>
                </mxCell>
                <mxCell id="4E74VlosZN33RyjYWTIC-72" style="edgeStyle=none;html=1;entryX=0.5;entryY=0;entryDx=0;entryDy=0;fontSize=14;" parent="4E74VlosZN33RyjYWTIC-22" source="4E74VlosZN33RyjYWTIC-65" target="4E74VlosZN33RyjYWTIC-71" edge="1">
                    <mxGeometry relative="1" as="geometry"/>
                </mxCell>
                <mxCell id="4E74VlosZN33RyjYWTIC-73" value="No" style="edgeLabel;html=1;align=center;verticalAlign=middle;resizable=0;points=[];fontSize=14;" parent="4E74VlosZN33RyjYWTIC-72" vertex="1" connectable="0">
                    <mxGeometry x="-0.4662" relative="1" as="geometry">
                        <mxPoint as="offset"/>
                    </mxGeometry>
                </mxCell>
                <mxCell id="4E74VlosZN33RyjYWTIC-65" value="Do we have &lt;br&gt;Internal value for &lt;br&gt;Variable = X &amp;amp;&lt;br&gt;Theme = Y" style="rhombus;whiteSpace=wrap;html=1;fontSize=14;" parent="4E74VlosZN33RyjYWTIC-22" vertex="1">
                    <mxGeometry x="476.5" y="440" width="147" height="140" as="geometry"/>
                </mxCell>
                <mxCell id="4E74VlosZN33RyjYWTIC-71" value="return Z" style="rounded=1;whiteSpace=wrap;html=1;fontSize=14;" parent="4E74VlosZN33RyjYWTIC-22" vertex="1">
                    <mxGeometry x="503.5" y="650" width="120" height="60" as="geometry"/>
                </mxCell>
                <mxCell id="4E74VlosZN33RyjYWTIC-78" value="&lt;b&gt;You are done&lt;/b&gt;" style="shape=hexagon;perimeter=hexagonPerimeter2;whiteSpace=wrap;html=1;fixedSize=1;strokeWidth=9;fontSize=14;fillColor=#f8cecc;strokeColor=#b85450;" parent="4E74VlosZN33RyjYWTIC-22" vertex="1">
                    <mxGeometry x="610" y="680" width="120" height="80" as="geometry"/>
                </mxCell>
                <mxCell id="4E74VlosZN33RyjYWTIC-77" value="&lt;b&gt;Start Here&lt;/b&gt;" style="triangle;whiteSpace=wrap;html=1;fontSize=14;strokeWidth=9;fillColor=#d5e8d4;strokeColor=#82b366;" parent="1" vertex="1">
                    <mxGeometry x="10" y="395" width="60" height="80" as="geometry"/>
                </mxCell>
            </root>
        </mxGraphModel>
    </diagram>
    <diagram id="i58F9RqyO7AOpKq6OkYb" name="New Concept">
        <mxGraphModel dx="1685" dy="2246" grid="1" gridSize="10" guides="1" tooltips="1" connect="1" arrows="1" fold="1" page="1" pageScale="1" pageWidth="850" pageHeight="1100" math="0" shadow="0">
            <root>
                <mxCell id="0"/>
                <mxCell id="1" parent="0"/>
                <mxCell id="Ouv1Zv4pm-kSpNQtkWr6-1" value="Customer (builder) Brand" style="swimlane;whiteSpace=wrap;html=1;" parent="1" vertex="1">
                    <mxGeometry x="40" y="40" width="200" height="440" as="geometry"/>
                </mxCell>
                <mxCell id="Ouv1Zv4pm-kSpNQtkWr6-2" value="Color Pallete" style="swimlane;fontStyle=0;childLayout=stackLayout;horizontal=1;startSize=30;horizontalStack=0;resizeParent=1;resizeParentMax=0;resizeLast=0;collapsible=1;marginBottom=0;whiteSpace=wrap;html=1;" parent="Ouv1Zv4pm-kSpNQtkWr6-1" vertex="1">
                    <mxGeometry x="40" y="40" width="140" height="150" as="geometry"/>
                </mxCell>
                <mxCell id="Ouv1Zv4pm-kSpNQtkWr6-3" value="Primary Color" style="text;strokeColor=none;fillColor=none;align=left;verticalAlign=middle;spacingLeft=4;spacingRight=4;overflow=hidden;points=[[0,0.5],[1,0.5]];portConstraint=eastwest;rotatable=0;whiteSpace=wrap;html=1;" parent="Ouv1Zv4pm-kSpNQtkWr6-2" vertex="1">
                    <mxGeometry y="30" width="140" height="30" as="geometry"/>
                </mxCell>
                <mxCell id="Ouv1Zv4pm-kSpNQtkWr6-4" value="Secondary Color" style="text;strokeColor=none;fillColor=none;align=left;verticalAlign=middle;spacingLeft=4;spacingRight=4;overflow=hidden;points=[[0,0.5],[1,0.5]];portConstraint=eastwest;rotatable=0;whiteSpace=wrap;html=1;" parent="Ouv1Zv4pm-kSpNQtkWr6-2" vertex="1">
                    <mxGeometry y="60" width="140" height="30" as="geometry"/>
                </mxCell>
                <mxCell id="Ouv1Zv4pm-kSpNQtkWr6-5" value="Accent Color 1" style="text;strokeColor=none;fillColor=none;align=left;verticalAlign=middle;spacingLeft=4;spacingRight=4;overflow=hidden;points=[[0,0.5],[1,0.5]];portConstraint=eastwest;rotatable=0;whiteSpace=wrap;html=1;" parent="Ouv1Zv4pm-kSpNQtkWr6-2" vertex="1">
                    <mxGeometry y="90" width="140" height="30" as="geometry"/>
                </mxCell>
                <mxCell id="Ouv1Zv4pm-kSpNQtkWr6-6" value="Accent Color 2" style="text;strokeColor=none;fillColor=none;align=left;verticalAlign=middle;spacingLeft=4;spacingRight=4;overflow=hidden;points=[[0,0.5],[1,0.5]];portConstraint=eastwest;rotatable=0;whiteSpace=wrap;html=1;" parent="Ouv1Zv4pm-kSpNQtkWr6-2" vertex="1">
                    <mxGeometry y="120" width="140" height="30" as="geometry"/>
                </mxCell>
                <mxCell id="Ouv1Zv4pm-kSpNQtkWr6-8" value="Font : all aspects of this" style="rounded=0;whiteSpace=wrap;html=1;" parent="Ouv1Zv4pm-kSpNQtkWr6-1" vertex="1">
                    <mxGeometry x="40" y="240" width="140" height="60" as="geometry"/>
                </mxCell>
                <mxCell id="Ouv1Zv4pm-kSpNQtkWr6-9" value="Logos/Images&amp;nbsp;" style="rounded=0;whiteSpace=wrap;html=1;" parent="Ouv1Zv4pm-kSpNQtkWr6-1" vertex="1">
                    <mxGeometry x="40" y="350" width="140" height="60" as="geometry"/>
                </mxCell>
                <mxCell id="Ouv1Zv4pm-kSpNQtkWr6-10" value="VDS" style="swimlane;whiteSpace=wrap;html=1;" parent="1" vertex="1">
                    <mxGeometry x="320" y="40" width="1000" height="630" as="geometry">
                        <mxRectangle x="320" y="40" width="70" height="30" as="alternateBounds"/>
                    </mxGeometry>
                </mxCell>
                <mxCell id="Ouv1Zv4pm-kSpNQtkWr6-11" value="Internal Variables" style="swimlane;fontStyle=0;childLayout=stackLayout;horizontal=1;startSize=30;horizontalStack=0;resizeParent=1;resizeParentMax=0;resizeLast=0;collapsible=1;marginBottom=0;whiteSpace=wrap;html=1;" parent="Ouv1Zv4pm-kSpNQtkWr6-10" vertex="1">
                    <mxGeometry x="530" y="50" width="140" height="150" as="geometry"/>
                </mxCell>
                <mxCell id="Ouv1Zv4pm-kSpNQtkWr6-12" value="btn-primary" style="text;strokeColor=none;fillColor=none;align=left;verticalAlign=middle;spacingLeft=4;spacingRight=4;overflow=hidden;points=[[0,0.5],[1,0.5]];portConstraint=eastwest;rotatable=0;whiteSpace=wrap;html=1;" parent="Ouv1Zv4pm-kSpNQtkWr6-11" vertex="1">
                    <mxGeometry y="30" width="140" height="30" as="geometry"/>
                </mxCell>
                <mxCell id="Ouv1Zv4pm-kSpNQtkWr6-13" value="color-icon-signOut" style="text;strokeColor=none;fillColor=none;align=left;verticalAlign=middle;spacingLeft=4;spacingRight=4;overflow=hidden;points=[[0,0.5],[1,0.5]];portConstraint=eastwest;rotatable=0;whiteSpace=wrap;html=1;" parent="Ouv1Zv4pm-kSpNQtkWr6-11" vertex="1">
                    <mxGeometry y="60" width="140" height="30" as="geometry"/>
                </mxCell>
                <mxCell id="Ouv1Zv4pm-kSpNQtkWr6-14" value="bg-light" style="text;strokeColor=none;fillColor=none;align=left;verticalAlign=middle;spacingLeft=4;spacingRight=4;overflow=hidden;points=[[0,0.5],[1,0.5]];portConstraint=eastwest;rotatable=0;whiteSpace=wrap;html=1;" parent="Ouv1Zv4pm-kSpNQtkWr6-11" vertex="1">
                    <mxGeometry y="90" width="140" height="30" as="geometry"/>
                </mxCell>
                <mxCell id="Ouv1Zv4pm-kSpNQtkWr6-15" value="... etc ..." style="text;strokeColor=none;fillColor=none;align=left;verticalAlign=middle;spacingLeft=4;spacingRight=4;overflow=hidden;points=[[0,0.5],[1,0.5]];portConstraint=eastwest;rotatable=0;whiteSpace=wrap;html=1;" parent="Ouv1Zv4pm-kSpNQtkWr6-11" vertex="1">
                    <mxGeometry y="120" width="140" height="30" as="geometry"/>
                </mxCell>
                <mxCell id="Ouv1Zv4pm-kSpNQtkWr6-16" value="Values" style="swimlane;fontStyle=0;childLayout=stackLayout;horizontal=1;startSize=30;horizontalStack=0;resizeParent=1;resizeParentMax=0;resizeLast=0;collapsible=1;marginBottom=0;whiteSpace=wrap;html=1;" parent="Ouv1Zv4pm-kSpNQtkWr6-10" vertex="1">
                    <mxGeometry x="670" y="50" width="310" height="150" as="geometry"/>
                </mxCell>
                <mxCell id="Ouv1Zv4pm-kSpNQtkWr6-17" value="linear-gradient( 0deg, #0e7b50 0, #129d66 100%)" style="text;strokeColor=none;fillColor=none;align=left;verticalAlign=middle;spacingLeft=4;spacingRight=4;overflow=hidden;points=[[0,0.5],[1,0.5]];portConstraint=eastwest;rotatable=0;whiteSpace=wrap;html=1;" parent="Ouv1Zv4pm-kSpNQtkWr6-16" vertex="1">
                    <mxGeometry y="30" width="310" height="30" as="geometry"/>
                </mxCell>
                <mxCell id="Ouv1Zv4pm-kSpNQtkWr6-18" value="#118e5c" style="text;strokeColor=none;fillColor=none;align=left;verticalAlign=middle;spacingLeft=4;spacingRight=4;overflow=hidden;points=[[0,0.5],[1,0.5]];portConstraint=eastwest;rotatable=0;whiteSpace=wrap;html=1;" parent="Ouv1Zv4pm-kSpNQtkWr6-16" vertex="1">
                    <mxGeometry y="60" width="310" height="30" as="geometry"/>
                </mxCell>
                <mxCell id="Ouv1Zv4pm-kSpNQtkWr6-19" value="#f7f7f7" style="text;strokeColor=none;fillColor=none;align=left;verticalAlign=middle;spacingLeft=4;spacingRight=4;overflow=hidden;points=[[0,0.5],[1,0.5]];portConstraint=eastwest;rotatable=0;whiteSpace=wrap;html=1;" parent="Ouv1Zv4pm-kSpNQtkWr6-16" vertex="1">
                    <mxGeometry y="90" width="310" height="30" as="geometry"/>
                </mxCell>
                <mxCell id="Ouv1Zv4pm-kSpNQtkWr6-20" value="... etc ..." style="text;strokeColor=none;fillColor=none;align=left;verticalAlign=middle;spacingLeft=4;spacingRight=4;overflow=hidden;points=[[0,0.5],[1,0.5]];portConstraint=eastwest;rotatable=0;whiteSpace=wrap;html=1;" parent="Ouv1Zv4pm-kSpNQtkWr6-16" vertex="1">
                    <mxGeometry y="120" width="310" height="30" as="geometry"/>
                </mxCell>
                <mxCell id="Ouv1Zv4pm-kSpNQtkWr6-21" value="Color Pallete (user input)" style="swimlane;fontStyle=0;childLayout=stackLayout;horizontal=1;startSize=30;horizontalStack=0;resizeParent=1;resizeParentMax=0;resizeLast=0;collapsible=1;marginBottom=0;whiteSpace=wrap;html=1;" parent="Ouv1Zv4pm-kSpNQtkWr6-10" vertex="1">
                    <mxGeometry x="20" y="130" width="140" height="270" as="geometry"/>
                </mxCell>
                <mxCell id="Ouv1Zv4pm-kSpNQtkWr6-22" value="Primary Color" style="text;strokeColor=none;fillColor=none;align=left;verticalAlign=middle;spacingLeft=4;spacingRight=4;overflow=hidden;points=[[0,0.5],[1,0.5]];portConstraint=eastwest;rotatable=0;whiteSpace=wrap;html=1;" parent="Ouv1Zv4pm-kSpNQtkWr6-21" vertex="1">
                    <mxGeometry y="30" width="140" height="30" as="geometry"/>
                </mxCell>
                <mxCell id="Ouv1Zv4pm-kSpNQtkWr6-23" value="Secondary Color" style="text;strokeColor=none;fillColor=none;align=left;verticalAlign=middle;spacingLeft=4;spacingRight=4;overflow=hidden;points=[[0,0.5],[1,0.5]];portConstraint=eastwest;rotatable=0;whiteSpace=wrap;html=1;" parent="Ouv1Zv4pm-kSpNQtkWr6-21" vertex="1">
                    <mxGeometry y="60" width="140" height="30" as="geometry"/>
                </mxCell>
                <mxCell id="Ouv1Zv4pm-kSpNQtkWr6-24" value="Accent Color 1" style="text;strokeColor=none;fillColor=none;align=left;verticalAlign=middle;spacingLeft=4;spacingRight=4;overflow=hidden;points=[[0,0.5],[1,0.5]];portConstraint=eastwest;rotatable=0;whiteSpace=wrap;html=1;" parent="Ouv1Zv4pm-kSpNQtkWr6-21" vertex="1">
                    <mxGeometry y="90" width="140" height="30" as="geometry"/>
                </mxCell>
                <mxCell id="Ouv1Zv4pm-kSpNQtkWr6-25" value="Accent Color 2" style="text;strokeColor=none;fillColor=none;align=left;verticalAlign=middle;spacingLeft=4;spacingRight=4;overflow=hidden;points=[[0,0.5],[1,0.5]];portConstraint=eastwest;rotatable=0;whiteSpace=wrap;html=1;" parent="Ouv1Zv4pm-kSpNQtkWr6-21" vertex="1">
                    <mxGeometry y="120" width="140" height="30" as="geometry"/>
                </mxCell>
                <mxCell id="Ouv1Zv4pm-kSpNQtkWr6-59" value="Success" style="text;strokeColor=none;fillColor=none;align=left;verticalAlign=middle;spacingLeft=4;spacingRight=4;overflow=hidden;points=[[0,0.5],[1,0.5]];portConstraint=eastwest;rotatable=0;whiteSpace=wrap;html=1;" parent="Ouv1Zv4pm-kSpNQtkWr6-21" vertex="1">
                    <mxGeometry y="150" width="140" height="30" as="geometry"/>
                </mxCell>
                <mxCell id="Ouv1Zv4pm-kSpNQtkWr6-58" value="Warning" style="text;strokeColor=none;fillColor=none;align=left;verticalAlign=middle;spacingLeft=4;spacingRight=4;overflow=hidden;points=[[0,0.5],[1,0.5]];portConstraint=eastwest;rotatable=0;whiteSpace=wrap;html=1;" parent="Ouv1Zv4pm-kSpNQtkWr6-21" vertex="1">
                    <mxGeometry y="180" width="140" height="30" as="geometry"/>
                </mxCell>
                <mxCell id="Ouv1Zv4pm-kSpNQtkWr6-61" value="Error" style="text;strokeColor=none;fillColor=none;align=left;verticalAlign=middle;spacingLeft=4;spacingRight=4;overflow=hidden;points=[[0,0.5],[1,0.5]];portConstraint=eastwest;rotatable=0;whiteSpace=wrap;html=1;" parent="Ouv1Zv4pm-kSpNQtkWr6-21" vertex="1">
                    <mxGeometry y="210" width="140" height="30" as="geometry"/>
                </mxCell>
                <mxCell id="Ouv1Zv4pm-kSpNQtkWr6-60" value="Info" style="text;strokeColor=none;fillColor=none;align=left;verticalAlign=middle;spacingLeft=4;spacingRight=4;overflow=hidden;points=[[0,0.5],[1,0.5]];portConstraint=eastwest;rotatable=0;whiteSpace=wrap;html=1;" parent="Ouv1Zv4pm-kSpNQtkWr6-21" vertex="1">
                    <mxGeometry y="240" width="140" height="30" as="geometry"/>
                </mxCell>
                <mxCell id="Ouv1Zv4pm-kSpNQtkWr6-30" value="Computed Colors (app defined)" style="swimlane;fontStyle=0;childLayout=stackLayout;horizontal=1;startSize=30;horizontalStack=0;resizeParent=1;resizeParentMax=0;resizeLast=0;collapsible=1;marginBottom=0;whiteSpace=wrap;html=1;" parent="Ouv1Zv4pm-kSpNQtkWr6-10" vertex="1">
                    <mxGeometry x="210" y="40" width="190" height="240" as="geometry"/>
                </mxCell>
                <mxCell id="Ouv1Zv4pm-kSpNQtkWr6-31" value="primary_color_light_3" style="text;strokeColor=none;fillColor=none;align=left;verticalAlign=middle;spacingLeft=4;spacingRight=4;overflow=hidden;points=[[0,0.5],[1,0.5]];portConstraint=eastwest;rotatable=0;whiteSpace=wrap;html=1;" parent="Ouv1Zv4pm-kSpNQtkWr6-30" vertex="1">
                    <mxGeometry y="30" width="190" height="30" as="geometry"/>
                </mxCell>
                <mxCell id="Ouv1Zv4pm-kSpNQtkWr6-32" value="primary_color_light_2" style="text;strokeColor=none;fillColor=none;align=left;verticalAlign=middle;spacingLeft=4;spacingRight=4;overflow=hidden;points=[[0,0.5],[1,0.5]];portConstraint=eastwest;rotatable=0;whiteSpace=wrap;html=1;" parent="Ouv1Zv4pm-kSpNQtkWr6-30" vertex="1">
                    <mxGeometry y="60" width="190" height="30" as="geometry"/>
                </mxCell>
                <mxCell id="Ouv1Zv4pm-kSpNQtkWr6-33" value="primary_color_light_1" style="text;strokeColor=none;fillColor=none;align=left;verticalAlign=middle;spacingLeft=4;spacingRight=4;overflow=hidden;points=[[0,0.5],[1,0.5]];portConstraint=eastwest;rotatable=0;whiteSpace=wrap;html=1;" parent="Ouv1Zv4pm-kSpNQtkWr6-30" vertex="1">
                    <mxGeometry y="90" width="190" height="30" as="geometry"/>
                </mxCell>
                <mxCell id="Ouv1Zv4pm-kSpNQtkWr6-38" value="primary_color" style="text;strokeColor=none;fillColor=none;align=left;verticalAlign=middle;spacingLeft=4;spacingRight=4;overflow=hidden;points=[[0,0.5],[1,0.5]];portConstraint=eastwest;rotatable=0;whiteSpace=wrap;html=1;" parent="Ouv1Zv4pm-kSpNQtkWr6-30" vertex="1">
                    <mxGeometry y="120" width="190" height="30" as="geometry"/>
                </mxCell>
                <mxCell id="Ouv1Zv4pm-kSpNQtkWr6-39" value="primary_color_dark_1" style="text;strokeColor=none;fillColor=none;align=left;verticalAlign=middle;spacingLeft=4;spacingRight=4;overflow=hidden;points=[[0,0.5],[1,0.5]];portConstraint=eastwest;rotatable=0;whiteSpace=wrap;html=1;" parent="Ouv1Zv4pm-kSpNQtkWr6-30" vertex="1">
                    <mxGeometry y="150" width="190" height="30" as="geometry"/>
                </mxCell>
                <mxCell id="Ouv1Zv4pm-kSpNQtkWr6-40" value="primary_color_dark_2" style="text;strokeColor=none;fillColor=none;align=left;verticalAlign=middle;spacingLeft=4;spacingRight=4;overflow=hidden;points=[[0,0.5],[1,0.5]];portConstraint=eastwest;rotatable=0;whiteSpace=wrap;html=1;" parent="Ouv1Zv4pm-kSpNQtkWr6-30" vertex="1">
                    <mxGeometry y="180" width="190" height="30" as="geometry"/>
                </mxCell>
                <mxCell id="Ouv1Zv4pm-kSpNQtkWr6-41" value="primary_color_dark_3" style="text;strokeColor=none;fillColor=none;align=left;verticalAlign=middle;spacingLeft=4;spacingRight=4;overflow=hidden;points=[[0,0.5],[1,0.5]];portConstraint=eastwest;rotatable=0;whiteSpace=wrap;html=1;" parent="Ouv1Zv4pm-kSpNQtkWr6-30" vertex="1">
                    <mxGeometry y="210" width="190" height="30" as="geometry"/>
                </mxCell>
                <mxCell id="Ouv1Zv4pm-kSpNQtkWr6-42" style="edgeStyle=none;html=1;entryX=0;entryY=0.5;entryDx=0;entryDy=0;exitX=1;exitY=0.5;exitDx=0;exitDy=0;" parent="Ouv1Zv4pm-kSpNQtkWr6-10" source="Ouv1Zv4pm-kSpNQtkWr6-22" target="Ouv1Zv4pm-kSpNQtkWr6-38" edge="1">
                    <mxGeometry relative="1" as="geometry"/>
                </mxCell>
                <mxCell id="Ouv1Zv4pm-kSpNQtkWr6-43" value="" style="triangle;whiteSpace=wrap;html=1;rotation=90;" parent="Ouv1Zv4pm-kSpNQtkWr6-10" vertex="1">
                    <mxGeometry x="760" y="200" width="60" height="80" as="geometry"/>
                </mxCell>
                <mxCell id="Ouv1Zv4pm-kSpNQtkWr6-44" value="Internal Variables" style="swimlane;fontStyle=0;childLayout=stackLayout;horizontal=1;startSize=30;horizontalStack=0;resizeParent=1;resizeParentMax=0;resizeLast=0;collapsible=1;marginBottom=0;whiteSpace=wrap;html=1;" parent="Ouv1Zv4pm-kSpNQtkWr6-10" vertex="1">
                    <mxGeometry x="440" y="280" width="140" height="150" as="geometry"/>
                </mxCell>
                <mxCell id="Ouv1Zv4pm-kSpNQtkWr6-45" value="btn-primary" style="text;strokeColor=none;fillColor=none;align=left;verticalAlign=middle;spacingLeft=4;spacingRight=4;overflow=hidden;points=[[0,0.5],[1,0.5]];portConstraint=eastwest;rotatable=0;whiteSpace=wrap;html=1;" parent="Ouv1Zv4pm-kSpNQtkWr6-44" vertex="1">
                    <mxGeometry y="30" width="140" height="30" as="geometry"/>
                </mxCell>
                <mxCell id="Ouv1Zv4pm-kSpNQtkWr6-46" value="color-icon-signOut" style="text;strokeColor=none;fillColor=none;align=left;verticalAlign=middle;spacingLeft=4;spacingRight=4;overflow=hidden;points=[[0,0.5],[1,0.5]];portConstraint=eastwest;rotatable=0;whiteSpace=wrap;html=1;" parent="Ouv1Zv4pm-kSpNQtkWr6-44" vertex="1">
                    <mxGeometry y="60" width="140" height="30" as="geometry"/>
                </mxCell>
                <mxCell id="Ouv1Zv4pm-kSpNQtkWr6-47" value="bg-light" style="text;strokeColor=none;fillColor=none;align=left;verticalAlign=middle;spacingLeft=4;spacingRight=4;overflow=hidden;points=[[0,0.5],[1,0.5]];portConstraint=eastwest;rotatable=0;whiteSpace=wrap;html=1;" parent="Ouv1Zv4pm-kSpNQtkWr6-44" vertex="1">
                    <mxGeometry y="90" width="140" height="30" as="geometry"/>
                </mxCell>
                <mxCell id="Ouv1Zv4pm-kSpNQtkWr6-48" value="... etc ..." style="text;strokeColor=none;fillColor=none;align=left;verticalAlign=middle;spacingLeft=4;spacingRight=4;overflow=hidden;points=[[0,0.5],[1,0.5]];portConstraint=eastwest;rotatable=0;whiteSpace=wrap;html=1;" parent="Ouv1Zv4pm-kSpNQtkWr6-44" vertex="1">
                    <mxGeometry y="120" width="140" height="30" as="geometry"/>
                </mxCell>
                <mxCell id="Ouv1Zv4pm-kSpNQtkWr6-49" value="Values" style="swimlane;fontStyle=0;childLayout=stackLayout;horizontal=1;startSize=30;horizontalStack=0;resizeParent=1;resizeParentMax=0;resizeLast=0;collapsible=1;marginBottom=0;whiteSpace=wrap;html=1;" parent="Ouv1Zv4pm-kSpNQtkWr6-10" vertex="1">
                    <mxGeometry x="580" y="280" width="410" height="150" as="geometry"/>
                </mxCell>
                <mxCell id="Ouv1Zv4pm-kSpNQtkWr6-50" value="linear-gradient( 0deg, var(--success-color-light-1 0, var(--success-color-dark-1) 100%)" style="text;strokeColor=none;fillColor=none;align=left;verticalAlign=middle;spacingLeft=4;spacingRight=4;overflow=hidden;points=[[0,0.5],[1,0.5]];portConstraint=eastwest;rotatable=0;whiteSpace=wrap;html=1;" parent="Ouv1Zv4pm-kSpNQtkWr6-49" vertex="1">
                    <mxGeometry y="30" width="410" height="30" as="geometry"/>
                </mxCell>
                <mxCell id="Ouv1Zv4pm-kSpNQtkWr6-51" value="var(--success-color)" style="text;strokeColor=none;fillColor=none;align=left;verticalAlign=middle;spacingLeft=4;spacingRight=4;overflow=hidden;points=[[0,0.5],[1,0.5]];portConstraint=eastwest;rotatable=0;whiteSpace=wrap;html=1;" parent="Ouv1Zv4pm-kSpNQtkWr6-49" vertex="1">
                    <mxGeometry y="60" width="410" height="30" as="geometry"/>
                </mxCell>
                <mxCell id="Ouv1Zv4pm-kSpNQtkWr6-52" value="var(--primary-color-light-3)" style="text;strokeColor=none;fillColor=none;align=left;verticalAlign=middle;spacingLeft=4;spacingRight=4;overflow=hidden;points=[[0,0.5],[1,0.5]];portConstraint=eastwest;rotatable=0;whiteSpace=wrap;html=1;" parent="Ouv1Zv4pm-kSpNQtkWr6-49" vertex="1">
                    <mxGeometry y="90" width="410" height="30" as="geometry"/>
                </mxCell>
                <mxCell id="Ouv1Zv4pm-kSpNQtkWr6-53" value="... etc ..." style="text;strokeColor=none;fillColor=none;align=left;verticalAlign=middle;spacingLeft=4;spacingRight=4;overflow=hidden;points=[[0,0.5],[1,0.5]];portConstraint=eastwest;rotatable=0;whiteSpace=wrap;html=1;" parent="Ouv1Zv4pm-kSpNQtkWr6-49" vertex="1">
                    <mxGeometry y="120" width="410" height="30" as="geometry"/>
                </mxCell>
                <mxCell id="Ouv1Zv4pm-kSpNQtkWr6-55" value="ThemeImages" style="rounded=0;whiteSpace=wrap;html=1;" parent="Ouv1Zv4pm-kSpNQtkWr6-10" vertex="1">
                    <mxGeometry x="40" y="550" width="120" height="60" as="geometry"/>
                </mxCell>
                <mxCell id="Ouv1Zv4pm-kSpNQtkWr6-62" value="Font: Drop down box of usable fonts to select" style="rounded=0;whiteSpace=wrap;html=1;" parent="Ouv1Zv4pm-kSpNQtkWr6-10" vertex="1">
                    <mxGeometry x="90" y="430" width="120" height="60" as="geometry"/>
                </mxCell>
                <mxCell id="Ouv1Zv4pm-kSpNQtkWr6-56" style="edgeStyle=none;html=1;exitX=1;exitY=0.5;exitDx=0;exitDy=0;entryX=0;entryY=0.5;entryDx=0;entryDy=0;" parent="1" source="Ouv1Zv4pm-kSpNQtkWr6-9" target="Ouv1Zv4pm-kSpNQtkWr6-55" edge="1">
                    <mxGeometry relative="1" as="geometry"/>
                </mxCell>
                <mxCell id="Ouv1Zv4pm-kSpNQtkWr6-57" style="edgeStyle=none;html=1;entryX=-0.006;entryY=0.08;entryDx=0;entryDy=0;entryPerimeter=0;" parent="1" source="Ouv1Zv4pm-kSpNQtkWr6-2" target="Ouv1Zv4pm-kSpNQtkWr6-21" edge="1">
                    <mxGeometry relative="1" as="geometry"/>
                </mxCell>
                <mxCell id="Ouv1Zv4pm-kSpNQtkWr6-63" value="" style="swimlane;startSize=0;" parent="1" vertex="1">
                    <mxGeometry x="80" y="-810" width="1240" height="770" as="geometry"/>
                </mxCell>
                <mxCell id="Ouv1Zv4pm-kSpNQtkWr6-64" value="Busines Need: Customer wants our site to look like their brand" style="rounded=0;whiteSpace=wrap;html=1;" parent="Ouv1Zv4pm-kSpNQtkWr6-63" vertex="1">
                    <mxGeometry x="60" y="30" width="260" height="60" as="geometry"/>
                </mxCell>
                <mxCell id="Ouv1Zv4pm-kSpNQtkWr6-65" value="Current Prespective" style="swimlane;whiteSpace=wrap;html=1;" parent="Ouv1Zv4pm-kSpNQtkWr6-63" vertex="1">
                    <mxGeometry x="60" y="120" width="1100" height="210" as="geometry"/>
                </mxCell>
                <mxCell id="Ouv1Zv4pm-kSpNQtkWr6-68" style="edgeStyle=none;html=1;entryX=0;entryY=0.5;entryDx=0;entryDy=0;" parent="Ouv1Zv4pm-kSpNQtkWr6-65" source="Ouv1Zv4pm-kSpNQtkWr6-66" target="Ouv1Zv4pm-kSpNQtkWr6-67" edge="1">
                    <mxGeometry relative="1" as="geometry"/>
                </mxCell>
                <mxCell id="Ouv1Zv4pm-kSpNQtkWr6-66" value="How does are app look now with CSS" style="rounded=0;whiteSpace=wrap;html=1;" parent="Ouv1Zv4pm-kSpNQtkWr6-65" vertex="1">
                    <mxGeometry x="40" y="70" width="200" height="100" as="geometry"/>
                </mxCell>
                <mxCell id="Ouv1Zv4pm-kSpNQtkWr6-70" style="edgeStyle=none;html=1;entryX=0;entryY=0.5;entryDx=0;entryDy=0;" parent="Ouv1Zv4pm-kSpNQtkWr6-65" source="Ouv1Zv4pm-kSpNQtkWr6-67" target="Ouv1Zv4pm-kSpNQtkWr6-69" edge="1">
                    <mxGeometry relative="1" as="geometry"/>
                </mxCell>
                <mxCell id="Ouv1Zv4pm-kSpNQtkWr6-67" value="exposing css variables" style="rounded=0;whiteSpace=wrap;html=1;" parent="Ouv1Zv4pm-kSpNQtkWr6-65" vertex="1">
                    <mxGeometry x="430" y="70" width="200" height="100" as="geometry"/>
                </mxCell>
                <mxCell id="Ouv1Zv4pm-kSpNQtkWr6-69" value="exposing css variables" style="rounded=0;whiteSpace=wrap;html=1;" parent="Ouv1Zv4pm-kSpNQtkWr6-65" vertex="1">
                    <mxGeometry x="820" y="70" width="200" height="100" as="geometry"/>
                </mxCell>
                <mxCell id="Ouv1Zv4pm-kSpNQtkWr6-71" value="alternate Prespective" style="swimlane;whiteSpace=wrap;html=1;" parent="Ouv1Zv4pm-kSpNQtkWr6-63" vertex="1">
                    <mxGeometry x="60" y="420" width="1100" height="210" as="geometry">
                        <mxRectangle x="60" y="420" width="160" height="30" as="alternateBounds"/>
                    </mxGeometry>
                </mxCell>
                <mxCell id="Ouv1Zv4pm-kSpNQtkWr6-72" style="edgeStyle=none;html=1;entryX=0;entryY=0.5;entryDx=0;entryDy=0;" parent="Ouv1Zv4pm-kSpNQtkWr6-71" source="Ouv1Zv4pm-kSpNQtkWr6-73" target="Ouv1Zv4pm-kSpNQtkWr6-75" edge="1">
                    <mxGeometry relative="1" as="geometry"/>
                </mxCell>
                <mxCell id="Ouv1Zv4pm-kSpNQtkWr6-73" value="Customers Branding" style="rounded=0;whiteSpace=wrap;html=1;" parent="Ouv1Zv4pm-kSpNQtkWr6-71" vertex="1">
                    <mxGeometry x="40" y="70" width="200" height="100" as="geometry"/>
                </mxCell>
                <mxCell id="Ouv1Zv4pm-kSpNQtkWr6-74" style="edgeStyle=none;html=1;entryX=0;entryY=0.5;entryDx=0;entryDy=0;" parent="Ouv1Zv4pm-kSpNQtkWr6-71" source="Ouv1Zv4pm-kSpNQtkWr6-75" target="Ouv1Zv4pm-kSpNQtkWr6-76" edge="1">
                    <mxGeometry relative="1" as="geometry"/>
                </mxCell>
                <mxCell id="Ouv1Zv4pm-kSpNQtkWr6-75" value="Pattern to implement" style="rounded=0;whiteSpace=wrap;html=1;" parent="Ouv1Zv4pm-kSpNQtkWr6-71" vertex="1">
                    <mxGeometry x="430" y="70" width="200" height="100" as="geometry"/>
                </mxCell>
                <mxCell id="Ouv1Zv4pm-kSpNQtkWr6-76" value="into theming" style="rounded=0;whiteSpace=wrap;html=1;" parent="Ouv1Zv4pm-kSpNQtkWr6-71" vertex="1">
                    <mxGeometry x="820" y="70" width="200" height="100" as="geometry"/>
                </mxCell>
                <mxCell id="Ouv1Zv4pm-kSpNQtkWr6-77" style="edgeStyle=none;html=1;entryX=0;entryY=0.5;entryDx=0;entryDy=0;" parent="1" source="Ouv1Zv4pm-kSpNQtkWr6-8" target="Ouv1Zv4pm-kSpNQtkWr6-62" edge="1">
                    <mxGeometry relative="1" as="geometry"/>
                </mxCell>
            </root>
        </mxGraphModel>
    </diagram>
</mxfile>